<svg width="70" height="70" viewBox="0 0 70 70" fill="none" xmlns="http://www.w3.org/2000/svg">
<path d="M34.9997 16.6797C47.0433 16.6797 56.8063 26.4428 56.8063 38.4863V54.4141C56.8063 54.9942 56.5759 55.5506 56.1656 55.9609C55.7554 56.3711 55.199 56.6016 54.6188 56.6016H15.3806C14.8004 56.6016 14.244 56.3711 13.8338 55.9609C13.4235 55.5506 13.1931 54.9942 13.1931 54.4141V38.4863C13.1931 26.4428 22.9561 16.6797 34.9997 16.6797ZM33.0856 4.64844H36.9138C37.0588 4.64844 37.1979 4.70605 37.3005 4.80861C37.403 4.91117 37.4606 5.05027 37.4606 5.19531V11.7578C37.4606 11.9029 37.403 12.042 37.3005 12.1445C37.1979 12.2471 37.0588 12.3047 36.9138 12.3047H33.0856C32.9406 12.3047 32.8015 12.2471 32.6989 12.1445C32.5964 12.042 32.5388 11.9029 32.5388 11.7578V5.19531C32.5388 5.05027 32.5964 4.91117 32.6989 4.80861C32.8015 4.70605 32.9406 4.64844 33.0856 4.64844ZM12.1164 13.1018C12.1672 13.0509 12.2275 13.0106 12.2939 12.9831C12.3603 12.9555 12.4314 12.9414 12.5033 12.9414C12.5752 12.9414 12.6463 12.9555 12.7127 12.9831C12.7791 13.0106 12.8394 13.0509 12.8902 13.1018L17.5305 17.742C17.6329 17.8445 17.6905 17.9836 17.6905 18.1286C17.6905 18.2735 17.6329 18.4126 17.5305 18.5151L14.8234 21.2222C14.7209 21.3246 14.5818 21.3822 14.4369 21.3822C14.2919 21.3822 14.1528 21.3246 14.0503 21.2222L9.41005 16.5819C9.30757 16.4794 9.25 16.3403 9.25 16.1954C9.25 16.0504 9.30757 15.9113 9.41005 15.8088L12.1164 13.1018ZM57.8898 13.1018L60.5969 15.8088C60.6991 15.9113 60.7566 16.0502 60.7566 16.195C60.7566 16.3398 60.6991 16.4787 60.5969 16.5813L55.9566 21.2229C55.9058 21.2737 55.8455 21.314 55.7791 21.3416C55.7127 21.3691 55.6416 21.3832 55.5697 21.3832C55.4978 21.3832 55.4267 21.3691 55.3603 21.3416C55.2939 21.314 55.2336 21.2737 55.1828 21.2229L52.4758 18.5158C52.4249 18.465 52.3846 18.4047 52.3571 18.3383C52.3295 18.2719 52.3154 18.2008 52.3154 18.1289C52.3154 18.057 52.3295 17.9859 52.3571 17.9195C52.3846 17.8531 52.4249 17.7928 52.4758 17.742L57.1167 13.1018C57.2192 12.9993 57.3583 12.9417 57.5033 12.9417C57.6482 12.9417 57.7873 12.9993 57.8898 13.1018ZM13.1247 60.9766H56.8747C57.4549 60.9766 58.0113 61.207 58.4215 61.6173C58.8317 62.0275 59.0622 62.5839 59.0622 63.1641V64.8047C59.0622 64.9497 59.0046 65.0888 58.902 65.1914C58.7995 65.2939 58.6604 65.3516 58.5153 65.3516H11.4841C11.339 65.3516 11.1999 65.2939 11.0974 65.1914C10.9948 65.0888 10.9372 64.9497 10.9372 64.8047V63.1641C10.9372 62.5839 11.1677 62.0275 11.5779 61.6173C11.9881 61.207 12.5445 60.9766 13.1247 60.9766ZM23.2419 39.3066V56.6016H27.6169V39.3066H23.2419Z" fill="#00FF84"/>
</svg>
