<svg width="70" height="70" viewBox="0 0 70 70" fill="none" xmlns="http://www.w3.org/2000/svg">
<path d="M46.6654 12.3958C46.6654 16.0125 43.7195 18.9583 40.1029 18.9583H29.8945C28.0862 18.9583 26.4529 18.2292 25.257 17.0333C24.0612 15.8375 23.332 14.2042 23.332 12.3958C23.332 8.77918 26.2779 5.83334 29.8945 5.83334H40.1029C41.9112 5.83334 43.5445 6.56251 44.7404 7.75834C45.9362 8.95418 46.6654 10.5875 46.6654 12.3958Z" fill="#00FF84"/>
<path d="M54.9221 14.6708C54.2513 14.1167 53.493 13.6792 52.6763 13.3583C51.8305 13.0375 50.9846 13.7083 50.8096 14.5833C49.818 19.5708 45.4138 23.3333 40.1055 23.3333H29.8971C26.9805 23.3333 24.2388 22.1958 22.168 20.125C20.6513 18.6083 19.6013 16.6833 19.193 14.6125C19.018 13.7375 18.143 13.0375 17.2971 13.3875C13.9138 14.7583 11.668 17.85 11.668 24.0625V52.5C11.668 61.25 16.8888 64.1667 23.3346 64.1667H46.668C53.1138 64.1667 58.3346 61.25 58.3346 52.5V24.0625C58.3346 19.3083 57.0221 16.3917 54.9221 14.6708ZM23.3346 35.7292H35.0013C36.1971 35.7292 37.1888 36.7208 37.1888 37.9167C37.1888 39.1125 36.1971 40.1042 35.0013 40.1042H23.3346C22.1388 40.1042 21.1471 39.1125 21.1471 37.9167C21.1471 36.7208 22.1388 35.7292 23.3346 35.7292ZM46.668 51.7708H23.3346C22.1388 51.7708 21.1471 50.7792 21.1471 49.5833C21.1471 48.3875 22.1388 47.3958 23.3346 47.3958H46.668C47.8638 47.3958 48.8555 48.3875 48.8555 49.5833C48.8555 50.7792 47.8638 51.7708 46.668 51.7708Z" fill="#00FF84"/>
</svg>
