<svg width="70" height="70" viewBox="0 0 70 70" fill="none" xmlns="http://www.w3.org/2000/svg">
<path d="M64.1654 8.021H5.83203C4.6362 8.021 3.64453 7.02933 3.64453 5.8335C3.64453 4.63766 4.6362 3.646 5.83203 3.646H64.1654C65.3612 3.646 66.3529 4.63766 66.3529 5.8335C66.3529 7.02933 65.3612 8.021 64.1654 8.021Z" fill="#00FF84"/>
<path d="M48.6221 65.1585C48.2429 65.9168 47.4554 66.3543 46.6679 66.3543C46.3471 66.3543 45.9971 66.2668 45.7054 66.121L35.0012 60.7835L24.2971 66.121C24.0054 66.2668 23.6554 66.3543 23.3346 66.3543C22.5471 66.3543 21.7596 65.9168 21.3804 65.1585C20.8262 64.0502 21.2637 62.7377 22.3721 62.2127L32.8137 56.9918V49.5835H37.1887V56.9918L47.6304 62.2127C48.7387 62.7377 49.1762 64.0502 48.6221 65.1585Z" fill="#00FF84"/>
<path d="M8.75 5.8335V41.1252C8.75 46.6668 11.6667 49.5835 17.2083 49.5835H52.7917C58.3333 49.5835 61.25 46.6668 61.25 41.1252V5.8335H8.75ZM49.525 25.0252L40.3375 32.696C39.4917 33.396 38.4125 33.6877 37.3917 33.5127C36.3417 33.3377 35.4375 32.696 34.8833 31.7627L31.8208 26.6585L23.275 33.7752C22.8667 34.1252 22.3708 34.271 21.875 34.271C21.2625 34.271 20.6208 34.0085 20.1833 33.4835C19.3958 32.5502 19.5417 31.1793 20.475 30.3918L29.6625 22.721C30.5083 22.021 31.5875 21.7293 32.6083 21.9043C33.6583 22.0793 34.5625 22.721 35.1167 23.6543L38.1792 28.7585L46.725 21.6418C47.6583 20.8543 49.0292 21.0002 49.8167 21.9335C50.575 22.8668 50.4583 24.2377 49.525 25.0252Z" fill="#00FF84"/>
</svg>
