<svg width="70" height="70" viewBox="0 0 70 70" fill="none" xmlns="http://www.w3.org/2000/svg">
<path fill-rule="evenodd" clip-rule="evenodd" d="M21.9553 7.74953C25.6009 6.81025 29.4352 6.89708 33.0345 8.00042C36.6339 9.10377 39.8581 11.1807 42.351 14.0017C44.844 16.8227 46.5085 20.2779 47.1607 23.9856C47.813 27.6934 47.4275 31.5092 46.0469 35.0116L59.4607 46.3662C60.478 47.2259 61.3058 48.2874 61.8917 49.4836C62.4776 50.6797 62.8089 51.9844 62.8646 53.3152C62.9203 54.646 62.6992 55.9738 62.2153 57.2147C61.7314 58.4556 60.9951 59.5826 60.0532 60.5243C59.1113 61.466 57.9842 62.202 56.7432 62.6856C55.5022 63.1693 54.1743 63.3901 52.8435 63.3342C51.5128 63.2782 50.2081 62.9466 49.0121 62.3604C47.8161 61.7742 46.7548 60.9462 45.8953 59.9287L34.5465 46.5208C31.0437 47.9036 27.2267 48.2908 23.5175 47.6396C19.8084 46.9884 16.3516 45.3242 13.5293 42.8309C10.7069 40.3376 8.62911 37.1124 7.52547 33.5119C6.42182 29.9113 6.33537 26.0757 7.27567 22.4291C7.40825 21.9167 7.67642 21.4495 8.052 21.0766C8.42757 20.7037 8.89667 20.4389 9.40998 20.31C9.9233 20.181 10.4619 20.1928 10.9691 20.344C11.4763 20.4952 11.9334 20.7802 12.2923 21.1691L21.1736 30.8145L27.8732 28.35L30.3436 21.6416L20.6923 12.775C20.3011 12.4161 20.0141 11.9582 19.8617 11.4497C19.7092 10.9411 19.6971 10.4008 19.8265 9.88596C19.9559 9.37108 20.222 8.90073 20.5967 8.52466C20.9715 8.14859 21.4408 7.88077 21.9553 7.74953Z" fill="#00FF84"/>
</svg>
