<svg width="70" height="70" viewBox="0 0 70 70" fill="none" xmlns="http://www.w3.org/2000/svg">
<path d="M20 17.7525V19.9944H11.75C9.95979 19.9944 8.2429 20.7058 6.97703 21.9721C5.71116 23.2385 5 24.956 5 26.7469V33.4994H18.5V31.2486C18.5 30.6516 18.7371 30.0791 19.159 29.657C19.581 29.2349 20.1533 28.9978 20.75 28.9978C21.3467 28.9978 21.919 29.2349 22.341 29.657C22.7629 30.0791 23 30.6516 23 31.2486V33.4994H47V31.2486C47 30.6516 47.2371 30.0791 47.659 29.657C48.081 29.2349 48.6533 28.9978 49.25 28.9978C49.8467 28.9978 50.419 29.2349 50.841 29.657C51.2629 30.0791 51.5 30.6516 51.5 31.2486V33.4994H65V26.7469C65 24.956 64.2888 23.2385 63.023 21.9721C61.7571 20.7058 60.0402 19.9944 58.25 19.9944H50V17.7525C50 15.9616 49.2888 14.2441 48.023 12.9778C46.7571 11.7114 45.0402 11 43.25 11H26.75C24.9598 11 23.2429 11.7114 21.977 12.9778C20.7112 14.2441 20 15.9616 20 17.7525ZM26.75 15.5017H43.25C43.8467 15.5017 44.419 15.7388 44.841 16.1609C45.2629 16.5831 45.5 17.1556 45.5 17.7525V19.9944H24.5V17.7525C24.5 17.1556 24.7371 16.5831 25.159 16.1609C25.581 15.7388 26.1533 15.5017 26.75 15.5017ZM65 38.0011H51.5V41.7525C51.5 42.3495 51.2629 42.922 50.841 43.3441C50.419 43.7662 49.8467 44.0034 49.25 44.0034C48.6533 44.0034 48.081 43.7662 47.659 43.3441C47.2371 42.922 47 42.3495 47 41.7525V38.0011H23V41.7525C23 42.3495 22.7629 42.922 22.341 43.3441C21.919 43.7662 21.3467 44.0034 20.75 44.0034C20.1533 44.0034 19.581 43.7662 19.159 43.3441C18.7371 42.922 18.5 42.3495 18.5 41.7525V38.0011H5V52.2475C5 54.0384 5.71116 55.7559 6.97703 57.0222C8.2429 58.2886 9.95979 59 11.75 59H58.25C60.0402 59 61.7571 58.2886 63.023 57.0222C64.2888 55.7559 65 54.0384 65 52.2475V38.0011Z" fill="#00FF84"/>
</svg>
