<svg width="225" height="180" viewBox="0 0 225 180" fill="none" xmlns="http://www.w3.org/2000/svg">
<path d="M2.96436 0.718805C2.34915 1.17014 1.43278 2.09886 0.925125 2.78021L0.000155628 4.02139C-0.00414655 124.273 0.077594 132.423 0.64118 133.564C0.993959 134.28 1.81998 135.265 2.46961 135.747C3.65271 136.632 3.70003 136.632 112.283 136.615C220.078 136.598 220.926 136.593 222.311 135.734C223.081 135.257 223.998 134.28 224.355 133.564C224.918 132.423 225 124.329 225 68.6843C225 15.7996 224.901 4.86765 224.411 3.6959C224.084 2.91908 223.296 1.79941 222.655 1.20052L221.489 0.115574C6.82343 -0.097076 4.05281 -0.0797171 2.96436 0.718805ZM82.9333 154.499L82.8129 162.419C77.6416 162.155 76.394 162.307 75.3916 162.81C74.6215 163.192 73.7008 164.095 73.3481 164.811C72.8791 165.761 72.7027 167.584 72.7027 171.537V176.962L75.7143 180H149.368L152.293 176.962C152.293 168.144 152.104 166.113 151.669 165.136C151.325 164.359 150.503 163.47 149.841 163.162C149.178 162.849 147.186 162.537 145.41 162.467L142.183 162.333L141.753 146.801L83.0538 146.579L82.9333 154.499Z" fill="#3BC2EB"/>
<path d="M51.1929 29.7258C50.3626 29.7996 48.233 30.1424 46.4605 30.4853C44.6837 30.8281 41.7797 31.7048 40.0072 32.4339C38.2304 33.1629 35.7437 34.3911 34.4746 35.1636C33.2055 35.9361 30.736 37.7892 28.9893 39.282C27.2426 40.7749 24.8248 43.3137 23.6202 44.9238C22.4156 46.5338 20.5915 49.6108 19.5675 51.759C18.5436 53.9071 17.2917 57.4224 16.7797 59.5706C16.2678 61.7188 15.7515 64.6481 15.6267 66.0803C15.502 67.5124 15.7042 70.8323 16.0742 73.4579C16.4442 76.0835 17.1454 79.4034 17.6359 80.8356C18.1263 82.2677 19.3223 84.9063 20.2903 86.6943C21.2583 88.4866 23.091 91.2684 24.3602 92.8785C25.6293 94.4885 27.9783 96.8537 29.5744 98.134C31.1705 99.4099 33.8809 101.267 35.5975 102.257C37.314 103.242 38.8112 104.053 38.9317 104.053C39.0521 104.053 39.7749 104.327 40.545 104.657C41.3151 104.991 42.8165 105.468 43.8792 105.724C44.9418 105.98 46.8305 106.393 48.0738 106.64C49.3171 106.887 51.735 107.091 53.4515 107.087C55.1681 107.087 57.8312 106.892 59.367 106.653C60.9029 106.414 63.566 105.781 65.2782 105.247C66.9948 104.709 68.3973 104.123 68.3973 103.945C68.4016 103.767 67.2529 100.738 65.8504 97.2183C64.4436 93.6987 61.9053 87.4017 60.2017 83.2225C58.498 79.0476 56.4544 74.0177 55.6542 72.0475L54.2044 68.4672H92.4938C92.4938 66.1106 92.0937 63.4287 91.6033 60.981C91.1171 58.5334 90.0846 55.0702 89.3188 53.2779C88.5487 51.4899 87.2108 48.899 86.3374 47.5277C85.4641 46.1563 83.3474 43.5437 81.6308 41.7297C79.9142 39.9113 76.963 37.3899 75.07 36.1227C73.177 34.8555 70.1741 33.2367 68.4016 32.525C66.6248 31.8089 63.6262 30.9236 61.7332 30.5504C59.8403 30.1772 57.0309 29.8083 55.4951 29.7302C53.9592 29.652 52.0232 29.652 51.1929 29.7258ZM196.822 43.0056C196.112 43.3354 194.869 44.1643 194.06 44.8587C193.251 45.5487 192.236 46.8984 191.81 47.8531C191.354 48.873 191.022 50.661 191.01 52.1929L190.984 54.7968C173.9 76.3743 170.931 79.8114 170.148 79.9676C169.559 80.0848 168.587 80.2844 167.997 80.4016C167.059 80.5925 166.014 79.6421 159.771 72.9154C155.839 68.6798 152.225 64.4311 151.739 63.4764C151.253 62.5216 150.259 61.185 149.532 60.5036C148.805 59.8223 147.579 58.989 146.809 58.6592C146.039 58.3251 144.443 58.0517 143.26 58.0517C141.995 58.0517 140.446 58.3902 139.495 58.8806C138.609 59.3362 137.37 60.2649 136.746 60.942C136.122 61.619 135.301 62.8081 134.918 63.5849C134.539 64.3617 134.221 65.6289 134.212 66.4058C134.203 67.5601 133.713 68.2936 131.523 70.4244C130.052 71.8609 125.573 76.1573 121.572 79.972L114.297 86.9113C107.685 86.9113 107.074 87.0501 105.478 88.1047C104.488 88.76 103.15 90.1271 102.509 91.1426C101.817 92.2319 101.27 93.7855 101.171 94.9399C101.081 96.0162 101.223 97.7217 101.485 98.7372C101.795 99.9437 102.604 101.22 103.813 102.426C104.837 103.442 106.433 104.513 107.362 104.804C108.296 105.099 109.638 105.338 110.348 105.338C111.058 105.338 112.508 104.939 113.575 104.453C114.641 103.962 115.967 103.138 116.522 102.617C117.077 102.092 117.898 100.933 118.35 100.039C118.797 99.1451 119.167 98.0211 119.167 97.5438C119.167 96.9709 122.824 93.2083 129.923 86.4773L140.678 76.2788C144.344 76.2788 145.944 76.0705 146.594 75.8188C147.618 75.4195 147.884 75.4889 148.577 76.3612C149.016 76.9124 152.019 80.2627 155.245 83.804C159.414 88.3781 161.286 90.765 161.703 92.0496C162.03 93.0434 162.774 94.4408 163.368 95.1569C163.957 95.8729 165.14 96.8971 166.001 97.4309C167.193 98.173 168.238 98.4117 170.363 98.4247C172.82 98.4421 173.422 98.2685 175.307 97.0187C176.636 96.1333 177.858 94.8488 178.52 93.638C179.329 92.1624 179.592 91.0297 179.6 89.0074C179.609 86.8679 179.824 86.0433 180.663 84.8846C181.244 84.0904 185.477 78.657 190.072 72.8069C194.662 66.9569 198.835 61.8229 199.343 61.3976C199.85 60.968 200.844 60.6338 201.554 60.6512C202.337 60.6729 203.688 60.1261 204.992 59.2625C206.347 58.3598 207.521 57.1186 208.18 55.8818C208.864 54.6059 209.238 53.1737 209.264 51.7503C209.289 50.2096 208.975 48.9381 208.197 47.4105C207.526 46.0955 206.373 44.7415 205.25 43.9473C203.766 42.8971 202.896 42.6237 200.763 42.5282C199.197 42.4631 197.583 42.6584 196.822 43.0056Z" fill="#FAFBFB"/>
</svg>
