<svg width="70" height="70" viewBox="0 0 70 70" fill="none" xmlns="http://www.w3.org/2000/svg">
<path d="M13.4913 25.8941C14.6544 23.122 16.3487 20.6042 18.4788 18.4828C20.601 16.3525 23.1198 14.6581 25.8929 13.4953C31.6081 11.121 38.0257 11.078 43.7721 13.3758C43.8298 15.2642 44.6211 17.0559 45.9781 18.3704C47.3352 19.685 49.1511 20.419 51.0404 20.4166C55.0829 20.4166 58.3321 17.1674 58.3321 13.1249C58.3321 9.08242 55.0829 5.83325 51.0404 5.83325C49.0308 5.83325 47.2138 6.63825 45.8983 7.94783C38.8079 5.10992 30.6646 5.15367 23.6296 8.11992C20.1588 9.57825 17.0379 11.6783 14.3546 14.3587C11.6452 17.0688 9.49767 20.2873 8.03517 23.8295C6.94407 26.4721 6.25028 29.256 5.97163 32.0909C5.81413 33.6933 7.13555 34.9999 8.74568 34.9999C10.3582 34.9999 11.6459 33.6878 11.8422 32.0873C12.1041 29.9519 12.656 27.8786 13.4913 25.8941ZM56.5033 44.1058C55.3338 46.8824 53.6538 49.3791 51.5158 51.517C49.3779 53.6549 46.8813 55.3349 44.1017 56.5045C38.3865 58.8789 31.9689 58.9218 26.2225 56.6241C26.1649 54.7361 25.3739 52.9449 24.0175 51.6304C22.6611 50.3159 20.8459 49.5816 18.9571 49.5833C14.9146 49.5833 11.6654 52.8324 11.6654 56.8749C11.6654 60.9174 14.9146 64.1666 18.9571 64.1666C20.9667 64.1666 22.7838 63.3616 24.0992 62.052C27.5635 63.4483 31.2637 64.1661 34.9988 64.1666C40.7347 64.1788 46.3465 62.4961 51.1293 59.3296C55.9121 56.1632 59.6528 51.6543 61.8817 46.3691C63.0191 43.6666 63.7403 40.8132 64.0258 37.9061C64.183 36.3054 62.8631 34.9999 61.2547 34.9999C59.6416 34.9999 58.3537 36.3144 58.1556 37.9153C57.8927 40.0403 57.3379 42.1238 56.5033 44.1058Z" fill="#00FF84"/>
<path d="M35.0015 21.7642C27.704 21.7642 21.7656 27.7025 21.7656 35C21.7656 42.2975 27.704 48.2358 35.0015 48.2358C42.299 48.2358 48.2373 42.2975 48.2373 35C48.2373 27.7025 42.299 21.7642 35.0015 21.7642Z" fill="#00FF84"/>
</svg>
