<svg width="70" height="70" viewBox="0 0 70 70" fill="none" xmlns="http://www.w3.org/2000/svg">
<path fill-rule="evenodd" clip-rule="evenodd" d="M40.4602 9.13049H50.072C51.588 9.13049 52.8153 10.2278 52.8153 11.5771V35.8972H17.5057L17.1114 35.9013V11.5771C17.1114 10.2238 18.3388 9.13049 19.8588 9.13049H29.4706V21.38C29.4706 21.7051 29.617 22.014 29.8771 22.2456C30.1454 22.4783 30.4892 22.6054 30.8443 22.6033H39.0865C39.4431 22.6064 39.7885 22.4792 40.0578 22.2456C40.1797 22.1358 40.2781 22.0025 40.3473 21.8538C40.4164 21.7051 40.4548 21.5439 40.4602 21.38V9.13049ZM17.5057 40.9734H52.8966C55.4999 41.026 57.9789 42.0971 59.8014 43.9569C61.6239 45.8166 62.6447 48.3166 62.6447 50.9205C62.6447 53.5243 61.6239 56.0244 59.8014 57.8841C57.9789 59.7439 55.4999 60.815 52.8966 60.8676H17.5057C16.1825 60.8943 14.8673 60.6568 13.637 60.169C12.4067 59.6811 11.2862 58.9527 10.341 58.0263C9.39572 57.1 8.6448 55.9944 8.13216 54.7743C7.61952 53.5541 7.35547 52.244 7.35547 50.9205C7.35547 49.597 7.61952 48.2869 8.13216 47.0667C8.6448 45.8466 9.39572 44.741 10.341 43.8147C11.2862 42.8883 12.4067 42.1599 13.637 41.672C14.8673 41.1842 16.1825 40.9467 17.5057 40.9734ZM24.6627 50.89C24.6627 51.8332 24.288 52.7377 23.6211 53.4046C22.9542 54.0715 22.0497 54.4462 21.1065 54.4462C20.1634 54.4462 19.2589 54.0715 18.592 53.4046C17.925 52.7377 17.5504 51.8332 17.5504 50.89C17.5504 49.9469 17.925 49.0423 18.592 48.3754C19.2589 47.7085 20.1634 47.3338 21.1065 47.3338C22.0497 47.3338 22.9542 47.7085 23.6211 48.3754C24.288 49.0423 24.6627 49.9469 24.6627 50.89ZM38.7776 50.89C38.7776 51.8332 38.403 52.7377 37.7361 53.4046C37.0691 54.0715 36.1646 54.4462 35.2215 54.4462C34.2783 54.4462 33.3738 54.0715 32.7069 53.4046C32.04 52.7377 31.6653 51.8332 31.6653 50.89C31.6653 49.9469 32.04 49.0423 32.7069 48.3754C33.3738 47.7085 34.2783 47.3338 35.2215 47.3338C36.1646 47.3338 37.0691 47.7085 37.7361 48.3754C38.403 49.0423 38.7776 49.9469 38.7776 50.89ZM49.3323 54.4421C50.2755 54.4421 51.18 54.0674 51.8469 53.4005C52.5138 52.7336 52.8885 51.8291 52.8885 50.886C52.8885 49.9428 52.5138 49.0383 51.8469 48.3714C51.18 47.7045 50.2755 47.3298 49.3323 47.3298C48.3892 47.3298 47.4846 47.7045 46.8177 48.3714C46.1508 49.0383 45.7762 49.9428 45.7762 50.886C45.7762 51.8291 46.1508 52.7336 46.8177 53.4005C47.4846 54.0674 48.3892 54.4421 49.3323 54.4421Z" fill="#00FF84"/>
</svg>
