<svg width="70" height="70" viewBox="0 0 70 70" fill="none" xmlns="http://www.w3.org/2000/svg">
<path d="M32.0835 13.65V24.9667C32.0835 26.8541 31.3337 28.6643 29.9991 29.9989C28.6644 31.3335 26.8543 32.0833 24.9668 32.0833H13.6502C12.7157 32.089 11.7896 31.9059 10.9276 31.5451C10.0656 31.1842 9.28527 30.653 8.63349 29.9833C7.97174 29.3271 7.44769 28.5453 7.09209 27.6839C6.73649 26.8224 6.55649 25.8986 6.56265 24.9667V13.6792C6.56264 11.7968 7.30842 9.99101 8.63675 8.65721C9.96509 7.32341 11.7678 6.57021 13.6502 6.5625H24.9668C26.8446 6.57763 28.6415 7.32829 29.9721 8.65337C31.3026 9.97845 32.0606 11.7723 32.0835 13.65ZM63.4376 13.6792V24.9667C63.4345 26.3695 63.0185 27.7404 62.2416 28.9084C61.4646 30.0764 60.3611 30.9899 59.0685 31.535C58.208 31.8972 57.2838 32.0837 56.3501 32.0833H45.0335C44.0967 32.0911 43.1678 31.9123 42.3009 31.5574C41.4339 31.2026 40.6463 30.6786 39.9839 30.0162C39.3215 29.3538 38.7976 28.5662 38.4427 27.6993C38.0878 26.8323 37.909 25.9034 37.9168 24.9667V13.6792C37.9145 12.7452 38.0991 11.8201 38.4597 10.9586C38.8204 10.097 39.3498 9.3163 40.0168 8.6625C40.6726 7.99811 41.4537 7.4704 42.3148 7.10993C43.1759 6.74947 44.1 6.5634 45.0335 6.5625H56.3501C58.2325 6.57021 60.0352 7.32341 61.3635 8.65721C62.6919 9.99101 63.4377 11.7968 63.4376 13.6792ZM32.0835 45.0625V56.35C32.0758 58.2324 31.3226 60.0351 29.9888 61.3634C28.655 62.6917 26.8492 63.4375 24.9668 63.4375H13.6502C12.7183 63.4414 11.795 63.2607 10.9333 62.9059C10.0717 62.551 9.28884 62.0291 8.62993 61.3702C7.97103 60.7113 7.44911 59.9285 7.0943 59.0668C6.73948 58.2052 6.55879 57.2818 6.56265 56.35V45.0625C6.57017 43.1797 7.31746 41.3753 8.64335 40.0385C9.96924 38.7017 11.7675 37.9396 13.6502 37.9167H24.9668C26.8546 37.932 28.6602 38.6907 29.9924 40.0283C31.3246 41.3659 32.0759 43.1747 32.0835 45.0625ZM48.2418 57.9833C47.7125 57.9872 47.1875 57.8882 46.696 57.6917C46.2033 57.4794 45.7573 57.1722 45.3835 56.7875L40.6002 52.0042C40.3938 51.8031 40.2298 51.5627 40.1178 51.2972C40.0058 51.0317 39.9481 50.7465 39.9481 50.4583C39.9481 50.1702 40.0058 49.885 40.1178 49.6195C40.2298 49.354 40.3938 49.1136 40.6002 48.9125C41.0103 48.5029 41.5663 48.2728 42.146 48.2728C42.7257 48.2728 43.2817 48.5029 43.6918 48.9125L48.2418 53.4917L57.6626 44.0417C57.8637 43.8353 58.1041 43.6713 58.3696 43.5593C58.6351 43.4473 58.9203 43.3896 59.2085 43.3896C59.4966 43.3896 59.7819 43.4473 60.0473 43.5593C60.3128 43.6713 60.5532 43.8353 60.7543 44.0417C61.164 44.4518 61.3941 45.0078 61.3941 45.5875C61.3941 46.1672 61.164 46.7232 60.7543 47.1333L51.071 56.8167C50.6945 57.1909 50.2487 57.4881 49.7585 57.6917C49.2783 57.8919 48.762 57.9912 48.2418 57.9833Z" fill="#00FF84"/>
</svg>
