<svg width="70" height="70" viewBox="0 0 70 70" fill="none" xmlns="http://www.w3.org/2000/svg">
<path fill-rule="evenodd" clip-rule="evenodd" d="M12.1683 9.25171C8.75 12.6671 8.75 18.168 8.75 29.1667V40.8334C8.75 51.8321 8.75 57.333 12.1683 60.7484C15.5867 64.1638 21.0846 64.1667 32.0833 64.1667H37.9167C48.9154 64.1667 54.4162 64.1667 57.8317 60.7484C61.2471 57.33 61.25 51.8321 61.25 40.8334V29.1667C61.25 18.168 61.25 12.6671 57.8317 9.25171C54.4133 5.83629 48.9154 5.83337 37.9167 5.83337H32.0833C21.0846 5.83337 15.5837 5.83337 12.1683 9.25171ZM21.1458 23.3334C21.1458 22.7532 21.3763 22.1968 21.7865 21.7866C22.1968 21.3763 22.7532 21.1459 23.3333 21.1459H46.6667C47.2468 21.1459 47.8032 21.3763 48.2135 21.7866C48.6237 22.1968 48.8542 22.7532 48.8542 23.3334C48.8542 23.9135 48.6237 24.4699 48.2135 24.8802C47.8032 25.2904 47.2468 25.5209 46.6667 25.5209H23.3333C22.7532 25.5209 22.1968 25.2904 21.7865 24.8802C21.3763 24.4699 21.1458 23.9135 21.1458 23.3334ZM21.1458 35C21.1458 34.4199 21.3763 33.8635 21.7865 33.4532C22.1968 33.043 22.7532 32.8125 23.3333 32.8125H46.6667C47.2468 32.8125 47.8032 33.043 48.2135 33.4532C48.6237 33.8635 48.8542 34.4199 48.8542 35C48.8542 35.5802 48.6237 36.1366 48.2135 36.5468C47.8032 36.9571 47.2468 37.1875 46.6667 37.1875H23.3333C22.7532 37.1875 22.1968 36.9571 21.7865 36.5468C21.3763 36.1366 21.1458 35.5802 21.1458 35ZM23.3333 44.4792C22.7532 44.4792 22.1968 44.7097 21.7865 45.1199C21.3763 45.5301 21.1458 46.0865 21.1458 46.6667C21.1458 47.2469 21.3763 47.8033 21.7865 48.2135C22.1968 48.6237 22.7532 48.8542 23.3333 48.8542H37.9167C38.4968 48.8542 39.0532 48.6237 39.4635 48.2135C39.8737 47.8033 40.1042 47.2469 40.1042 46.6667C40.1042 46.0865 39.8737 45.5301 39.4635 45.1199C39.0532 44.7097 38.4968 44.4792 37.9167 44.4792H23.3333Z" fill="#00FF84"/>
</svg>
