<svg width="70" height="70" viewBox="0 0 70 70" fill="none" xmlns="http://www.w3.org/2000/svg">
<path d="M47.2195 5.83325H22.7779C12.1612 5.83325 5.83203 12.1624 5.83203 22.7791V47.1916C5.83203 57.8374 12.1612 64.1666 22.7779 64.1666H47.1904C57.807 64.1666 64.1362 57.8374 64.1362 47.2208V22.7791C64.1654 12.1624 57.8362 5.83325 47.2195 5.83325ZM15.3112 34.6791C15.3987 29.5458 17.4404 24.7041 21.057 21.0874C24.7904 17.3541 29.7487 15.3124 34.9987 15.3124C40.2487 15.3124 45.207 17.3541 48.9112 21.0874C48.9987 21.1749 49.0862 21.2916 49.1737 21.4083V18.8999C49.1737 17.7041 50.1654 16.7124 51.3612 16.7124C52.557 16.7124 53.5487 17.7041 53.5487 18.8999V26.6291C53.5487 27.8249 52.557 28.8166 51.3612 28.8166H43.632C42.4362 28.8166 41.4445 27.8249 41.4445 26.6291C41.4445 25.4333 42.4362 24.4416 43.632 24.4416H46.0529C45.9654 24.3541 45.907 24.2666 45.8195 24.1791C42.932 21.2916 39.082 19.6874 34.9987 19.6874C30.9154 19.6874 27.0654 21.2916 24.1779 24.1791C21.3487 27.0083 19.7737 30.7708 19.7154 34.7666C19.6862 35.9333 18.6945 36.8958 17.4987 36.8958H17.4695C16.2737 36.8958 15.3112 35.8749 15.3112 34.6791ZM48.9112 48.9124C45.207 52.6166 40.2487 54.6874 34.9987 54.6874C29.7487 54.6874 24.7904 52.6458 21.0862 48.9124C20.9987 48.8249 20.9112 48.7082 20.8237 48.5916V51.0708C20.8237 52.2666 19.832 53.2583 18.6362 53.2583C17.4404 53.2583 16.4487 52.2666 16.4487 51.0708V43.3416C16.4487 42.1457 17.4404 41.1541 18.6362 41.1541H26.3654C27.5612 41.1541 28.5529 42.1457 28.5529 43.3416C28.5529 44.5374 27.5612 45.5291 26.3654 45.5291H23.9445C24.032 45.6166 24.0904 45.7041 24.1779 45.7916C27.0654 48.6791 30.9154 50.2832 34.9987 50.2832C39.082 50.2832 42.932 48.6791 45.8195 45.7916C48.6779 42.9333 50.282 39.1124 50.282 35.0291C50.282 33.8333 51.2737 32.8416 52.4695 32.8416C53.6654 32.8416 54.657 33.8333 54.657 35.0291C54.657 40.3083 52.6154 45.2374 48.9112 48.9124Z" fill="#00FF84"/>
</svg>
