<svg width="70" height="70" viewBox="0 0 70 70" fill="none" xmlns="http://www.w3.org/2000/svg">
<path d="M47.2195 5.83331H22.7779C12.1612 5.83331 5.83203 12.1625 5.83203 22.7791V47.1916C5.83203 57.8375 12.1612 64.1666 22.7779 64.1666H47.1904C57.807 64.1666 64.1362 57.8375 64.1362 47.2208V22.7791C64.1654 12.1625 57.8362 5.83331 47.2195 5.83331ZM22.3695 16.0416C22.3695 14.8458 23.3612 13.8541 24.557 13.8541C25.7529 13.8541 26.7445 14.8458 26.7445 16.0416V27.4166C26.7445 28.6125 25.7529 29.6041 24.557 29.6041C23.3612 29.6041 22.3695 28.6125 22.3695 27.4166V16.0416ZM27.103 48.1871C26.8923 48.2589 26.7445 48.4532 26.7445 48.6758V53.9583C26.7445 55.1541 25.7529 56.1458 24.557 56.1458C23.3612 56.1458 22.3695 55.1541 22.3695 53.9583V48.6758C22.3695 48.4532 22.2217 48.2589 22.011 48.187C18.8719 47.1164 16.6237 44.1728 16.6237 40.6875C16.6237 36.3125 20.182 32.725 24.557 32.725C28.932 32.725 32.5195 36.2833 32.5195 40.6875C32.5195 44.1729 30.2442 47.1165 27.103 48.1871ZM47.6279 53.9583C47.6279 55.1541 46.6362 56.1458 45.4404 56.1458C44.2445 56.1458 43.2529 55.1541 43.2529 53.9583V42.5833C43.2529 41.3875 44.2445 40.3958 45.4404 40.3958C46.6362 40.3958 47.6279 41.3875 47.6279 42.5833V53.9583ZM45.4404 37.2458C41.0654 37.2458 37.4779 33.6875 37.4779 29.2833C37.4779 25.7979 39.7532 22.8543 42.8944 21.7837C43.1051 21.7119 43.2529 21.5176 43.2529 21.295V16.0416C43.2529 14.8458 44.2445 13.8541 45.4404 13.8541C46.6362 13.8541 47.6279 14.8458 47.6279 16.0416V21.3242C47.6279 21.5468 47.7757 21.7411 47.9864 21.8129C51.1255 22.8835 53.3737 25.8271 53.3737 29.3125C53.3737 33.6875 49.8154 37.2458 45.4404 37.2458Z" fill="#00FF84"/>
</svg>
