<svg width="32" height="32" viewBox="0 0 32 32" fill="none" xmlns="http://www.w3.org/2000/svg">
<path d="M29.3327 17.3334V12.0001C29.3327 5.33341 26.666 2.66675 19.9993 2.66675H11.9993C5.33268 2.66675 2.66602 5.33341 2.66602 12.0001V20.0001C2.66602 26.6667 5.33268 29.3334 11.9993 29.3334H17.3327" stroke="#F9B70E" stroke-width="2" stroke-linecap="round" stroke-linejoin="round"/>
<path d="M29.3327 17.3334V12.0001C29.3327 5.33341 26.666 2.66675 19.9993 2.66675H11.9993C5.33268 2.66675 2.66602 5.33341 2.66602 12.0001V20.0001C2.66602 26.6667 5.33268 29.3334 11.9993 29.3334H17.3327" stroke="#F9B70E" stroke-width="2" stroke-linecap="round" stroke-linejoin="round"/>
<path d="M29.3327 17.3334V12.0001C29.3327 5.33341 26.666 2.66675 19.9993 2.66675H11.9993C5.33268 2.66675 2.66602 5.33341 2.66602 12.0001V20.0001C2.66602 26.6667 5.33268 29.3334 11.9993 29.3334H17.3327" stroke="#F9B70E" stroke-width="2" stroke-linecap="round" stroke-linejoin="round"/>
<path d="M21.334 25.9067L23.4407 28.0001L28.0007 22.6667" stroke="#F9B70E" stroke-width="2" stroke-linecap="round" stroke-linejoin="round"/>
<path d="M9.33398 14V18" stroke="#F9B70E" stroke-width="2" stroke-linecap="round" stroke-linejoin="round"/>
<path d="M16 14V18" stroke="#F9B70E" stroke-width="2" stroke-linecap="round" stroke-linejoin="round"/>
<path d="M22.666 14V18" stroke="#F9B70E" stroke-width="2" stroke-linecap="round" stroke-linejoin="round"/>
</svg>
