<svg width="32" height="32" viewBox="0 0 32 32" fill="none" xmlns="http://www.w3.org/2000/svg">
<path d="M21.332 22.6666L11.9987 22.6666" stroke="#07AF40" stroke-width="2" stroke-linecap="round" stroke-linejoin="round"/>
<path d="M21.332 17.3333L17.332 17.3333" stroke="#07AF40" stroke-width="2" stroke-linecap="round" stroke-linejoin="round"/>
<path d="M27.332 18.6666C27.332 23.6949 27.332 26.2091 25.6723 27.7712C24.0126 29.3333 21.3413 29.3333 15.9987 29.3333H14.9684C10.6201 29.3333 8.44598 29.3333 6.93612 28.2695C6.50353 27.9647 6.11947 27.6032 5.79563 27.1961C4.66537 25.775 4.66537 23.7288 4.66537 19.6363V16.2423C4.66537 12.2914 4.66537 10.316 5.29061 8.73825C6.29578 6.20182 8.42155 4.2011 11.1165 3.25506C12.7929 2.66659 14.8918 2.66659 19.0896 2.66659C21.4884 2.66659 22.6877 2.66659 23.6457 3.00285C25.1856 3.54345 26.4004 4.68672 26.9747 6.13611C27.332 7.03768 27.332 8.16651 27.332 10.4242V18.6666Z" stroke="#07AF40" stroke-width="2" stroke-linejoin="round"/>
<path d="M4.66667 16C4.66667 13.5454 6.65651 11.5556 9.11111 11.5556C9.99882 11.5556 11.0454 11.7111 11.9085 11.4798C12.6754 11.2744 13.2744 10.6754 13.4798 9.90849C13.7111 9.04538 13.5556 7.99882 13.5556 7.11111C13.5556 4.65651 15.5454 2.66667 18 2.66667" stroke="#07AF40" stroke-width="2" stroke-linecap="round" stroke-linejoin="round"/>
</svg>
