<svg width="32" height="32" viewBox="0 0 32 32" fill="none" xmlns="http://www.w3.org/2000/svg">
<path d="M11.9993 29.3334H19.9993C26.666 29.3334 29.3327 26.6667 29.3327 20.0001V12.0001C29.3327 5.33341 26.666 2.66675 19.9993 2.66675H11.9993C5.33268 2.66675 2.66602 5.33341 2.66602 12.0001V20.0001C2.66602 26.6667 5.33268 29.3334 11.9993 29.3334Z" stroke="#E53A3A" stroke-width="2" stroke-linecap="round" stroke-linejoin="round"/>
<path d="M23.3327 16.0001C23.3327 20.0534 20.0527 23.3334 15.9993 23.3334C11.946 23.3334 9.47933 19.2534 9.47933 19.2534M9.47933 19.2534H12.786M9.47933 19.2534V22.9201M8.66602 16.0001C8.66602 11.9467 11.9193 8.66675 15.9993 8.66675C20.8927 8.66675 23.3327 12.7467 23.3327 12.7467M23.3327 12.7467V9.08008M23.3327 12.7467H20.0793" stroke="#E53A3A" stroke-width="2" stroke-linecap="round" stroke-linejoin="round"/>
</svg>
