<svg width="1512" height="401" viewBox="0 0 1512 401" fill="none" xmlns="http://www.w3.org/2000/svg">
<path d="M79.5789 464H0V384.453H79.5789V464Z" fill="#D3EEFF" fill-opacity="0.3"/>
<path d="M169.105 464H89.5263V384.453H169.105V464Z" fill="#D3EEFF" fill-opacity="0.3"/>
<path d="M258.632 464H179.053V384.453H258.632V464Z" fill="#D3EEFF" fill-opacity="0.3"/>
<path d="M348.158 464H268.579V384.453H348.158V464Z" fill="#D3EEFF" fill-opacity="0.3"/>
<path d="M437.684 464H358.105V384.453H437.684V464Z" fill="#D3EEFF" fill-opacity="0.3"/>
<path d="M527.211 464H447.632V384.453H527.211V464Z" fill="#D3EEFF" fill-opacity="0.3"/>
<path d="M616.737 464H537.158V384.453H616.737V464Z" fill="#D3EEFF" fill-opacity="0.3"/>
<path d="M706.263 464H626.684V384.453H706.263V464Z" fill="#D3EEFF" fill-opacity="0.3"/>
<path d="M795.789 464H716.211V384.453H795.789V464Z" fill="#00A55E" fill-opacity="0.1"/>
<path d="M885.316 464H805.737V384.453H885.316V464Z" fill="#D3EEFF" fill-opacity="0.3"/>
<path d="M974.842 464H895.263V384.453H974.842V464Z" fill="#D3EEFF" fill-opacity="0.3"/>
<path d="M1064.37 464H984.789V384.453H1064.37V464Z" fill="#D3EEFF" fill-opacity="0.3"/>
<path d="M1153.89 464H1074.32V384.453H1153.89V464Z" fill="#D3EEFF" fill-opacity="0.3"/>
<path d="M1243.42 464H1163.84V384.453H1243.42V464Z" fill="#D3EEFF" fill-opacity="0.3"/>
<path d="M1332.95 464H1253.37V384.453H1332.95V464Z" fill="#D3EEFF" fill-opacity="0.3"/>
<path d="M1422.47 464H1342.89V384.453H1422.47V464Z" fill="#D3EEFF" fill-opacity="0.3"/>
<path d="M1512 464H1432.42V384.453H1512V464Z" fill="#D3EEFF" fill-opacity="0.3"/>
<path d="M79.5789 374.509H0V294.962H79.5789V374.509Z" fill="#D3EEFF" fill-opacity="0.3"/>
<path d="M169.105 374.509H89.5263V294.962H169.105V374.509Z" fill="#00A55E" fill-opacity="0.1"/>
<path d="M258.632 374.509H179.053V294.962H258.632V374.509Z" fill="#D3EEFF" fill-opacity="0.3"/>
<path d="M348.158 374.509H268.579V294.962H348.158V374.509Z" fill="#D3EEFF" fill-opacity="0.3"/>
<path d="M437.684 374.509H358.105V294.962H437.684V374.509Z" fill="#D3EEFF" fill-opacity="0.3"/>
<path d="M527.211 374.509H447.632V294.962H527.211V374.509Z" fill="#D3EEFF" fill-opacity="0.3"/>
<path d="M616.737 374.509H537.158V294.962H616.737V374.509Z" fill="#D3EEFF" fill-opacity="0.3"/>
<path d="M706.263 374.509H626.684V294.962H706.263V374.509Z" fill="#D3EEFF" fill-opacity="0.3"/>
<path d="M795.789 374.509H716.211V294.962H795.789V374.509Z" fill="#D3EEFF" fill-opacity="0.3"/>
<path d="M885.316 374.509H805.737V294.962H885.316V374.509Z" fill="#D3EEFF" fill-opacity="0.3"/>
<path d="M974.842 374.509H895.263V294.962H974.842V374.509Z" fill="#D3EEFF" fill-opacity="0.3"/>
<path d="M1064.37 374.509H984.789V294.962H1064.37V374.509Z" fill="#D3EEFF" fill-opacity="0.3"/>
<path d="M1153.89 374.509H1074.32V294.962H1153.89V374.509Z" fill="#D3EEFF" fill-opacity="0.3"/>
<path d="M1243.42 374.509H1163.84V294.962H1243.42V374.509Z" fill="#D3EEFF" fill-opacity="0.3"/>
<path d="M1332.95 374.509H1253.37V294.962H1332.95V374.509Z" fill="#D3EEFF" fill-opacity="0.3"/>
<path d="M1422.47 374.509H1342.89V294.962H1422.47V374.509Z" fill="#00A55E" fill-opacity="0.1"/>
<path d="M1512 374.509H1432.42V294.962H1512V374.509Z" fill="#D3EEFF" fill-opacity="0.3"/>
<path d="M79.5789 285.019H0V205.472H79.5789V285.019Z" fill="#00A55E" fill-opacity="0.1"/>
<path d="M169.105 285.019H89.5263V205.472H169.105V285.019Z" fill="#D3EEFF" fill-opacity="0.3"/>
<path d="M258.632 285.019H179.053V205.472H258.632V285.019Z" fill="#D3EEFF" fill-opacity="0.3"/>
<path d="M348.158 285.019H268.579V205.472H348.158V285.019Z" fill="#D3EEFF" fill-opacity="0.3"/>
<path d="M437.684 285.019H358.105V205.472H437.684V285.019Z" fill="#00A55E" fill-opacity="0.1"/>
<path d="M527.211 285.019H447.632V205.472H527.211V285.019Z" fill="#D3EEFF" fill-opacity="0.3"/>
<path d="M616.737 285.019H537.158V205.472H616.737V285.019Z" fill="#D3EEFF" fill-opacity="0.3"/>
<path d="M706.263 285.019H626.684V205.472H706.263V285.019Z" fill="#D3EEFF" fill-opacity="0.3"/>
<path d="M795.789 285.019H716.211V205.472H795.789V285.019Z" fill="#D3EEFF" fill-opacity="0.3"/>
<path d="M885.316 285.019H805.737V205.472H885.316V285.019Z" fill="#D3EEFF" fill-opacity="0.3"/>
<path d="M974.842 285.019H895.263V205.472H974.842V285.019Z" fill="#D3EEFF" fill-opacity="0.3"/>
<path d="M1064.37 285.019H984.789V205.472H1064.37V285.019Z" fill="#D3EEFF" fill-opacity="0.3"/>
<path d="M1153.89 285.019H1074.32V205.472H1153.89V285.019Z" fill="#D3EEFF" fill-opacity="0.3"/>
<path d="M1243.42 285.019H1163.84V205.472H1243.42V285.019Z" fill="#D3EEFF" fill-opacity="0.3"/>
<path d="M1332.95 285.019H1253.37V205.472H1332.95V285.019Z" fill="#D3EEFF" fill-opacity="0.3"/>
<path d="M1422.47 285.019H1342.89V205.472H1422.47V285.019Z" fill="#D3EEFF" fill-opacity="0.3"/>
<path d="M1512 285.019H1432.42V205.472H1512V285.019Z" fill="#D3EEFF" fill-opacity="0.3"/>
<path d="M79.5789 195.528H0V115.981H79.5789V195.528Z" fill="#D3EEFF" fill-opacity="0.3"/>
<path d="M169.105 195.528H89.5263V115.981H169.105V195.528Z" fill="#D3EEFF" fill-opacity="0.3"/>
<path d="M258.632 195.528H179.053V115.981H258.632V195.528Z" fill="#D3EEFF" fill-opacity="0.3"/>
<path d="M348.158 195.528H268.579V115.981H348.158V195.528Z" fill="#D3EEFF" fill-opacity="0.3"/>
<path d="M437.684 195.528H358.105V115.981H437.684V195.528Z" fill="#D3EEFF" fill-opacity="0.3"/>
<path d="M527.211 195.528H447.632V115.981H527.211V195.528Z" fill="#D3EEFF" fill-opacity="0.3"/>
<path d="M616.737 195.528H537.158V115.981H616.737V195.528Z" fill="#D3EEFF" fill-opacity="0.3"/>
<path d="M706.263 195.528H626.684V115.981H706.263V195.528Z" fill="#D3EEFF" fill-opacity="0.3"/>
<path d="M795.789 195.528H716.211V115.981H795.789V195.528Z" fill="#D3EEFF" fill-opacity="0.3"/>
<path d="M885.316 195.528H805.737V115.981H885.316V195.528Z" fill="#D3EEFF" fill-opacity="0.3"/>
<path d="M974.842 195.528H895.263V115.981H974.842V195.528Z" fill="#D3EEFF" fill-opacity="0.3"/>
<path d="M1064.37 195.528H984.789V115.981H1064.37V195.528Z" fill="#D3EEFF" fill-opacity="0.3"/>
<path d="M1153.89 195.528H1074.32V115.981H1153.89V195.528Z" fill="#D3EEFF" fill-opacity="0.3"/>
<path d="M1243.42 195.528H1163.84V115.981H1243.42V195.528Z" fill="#00A55E" fill-opacity="0.1"/>
<path d="M1332.95 195.528H1253.37V115.981H1332.95V195.528Z" fill="#D3EEFF" fill-opacity="0.3"/>
<path d="M1422.47 195.528H1342.89V115.981H1422.47V195.528Z" fill="#D3EEFF" fill-opacity="0.3"/>
<path d="M1512 195.528H1432.42V115.981H1512V195.528Z" fill="#D3EEFF" fill-opacity="0.3"/>
<path d="M79.5789 106.038H0V26.4906H79.5789V106.038Z" fill="#D3EEFF" fill-opacity="0.3"/>
<path d="M169.105 106.038H89.5263V26.4906H169.105V106.038Z" fill="#D3EEFF" fill-opacity="0.3"/>
<path d="M258.632 106.038H179.053V26.4906H258.632V106.038Z" fill="#D3EEFF" fill-opacity="0.3"/>
<path d="M348.158 106.038H268.579V26.4906H348.158V106.038Z" fill="#00A55E" fill-opacity="0.1"/>
<path d="M437.684 106.038H358.105V26.4906H437.684V106.038Z" fill="#D3EEFF" fill-opacity="0.3"/>
<path d="M527.211 106.038H447.632V26.4906H527.211V106.038Z" fill="#D3EEFF" fill-opacity="0.3"/>
<path d="M616.737 106.038H537.158V26.4906H616.737V106.038Z" fill="#D3EEFF" fill-opacity="0.3"/>
<path d="M706.263 106.038H626.684V26.4906H706.263V106.038Z" fill="#D3EEFF" fill-opacity="0.3"/>
<path d="M795.789 106.038H716.211V26.4906H795.789V106.038Z" fill="#D3EEFF" fill-opacity="0.3"/>
<path d="M885.316 106.038H805.737V26.4906H885.316V106.038Z" fill="#D3EEFF" fill-opacity="0.3"/>
<path d="M974.842 106.038H895.263V26.4906H974.842V106.038Z" fill="#D3EEFF" fill-opacity="0.3"/>
<path d="M1064.37 106.038H984.789V26.4906H1064.37V106.038Z" fill="#D3EEFF" fill-opacity="0.3"/>
<path d="M1153.89 106.038H1074.32V26.4906H1153.89V106.038Z" fill="#D3EEFF" fill-opacity="0.3"/>
<path d="M1243.42 106.038H1163.84V26.4906H1243.42V106.038Z" fill="#00A55E" fill-opacity="0.1"/>
<path d="M1332.95 106.038H1253.37V26.4906H1332.95V106.038Z" fill="#D3EEFF" fill-opacity="0.3"/>
<path d="M1422.47 106.038H1342.89V26.4906H1422.47V106.038Z" fill="#D3EEFF" fill-opacity="0.3"/>
<path d="M1512 106.038H1432.42V26.4906H1512V106.038Z" fill="#00A55E" fill-opacity="0.1"/>
<path d="M79.5789 16.5472H0V-63H79.5789V16.5472Z" fill="#00A55E" fill-opacity="0.1"/>
<path d="M169.105 16.5472H89.5263V-63H169.105V16.5472Z" fill="#D3EEFF" fill-opacity="0.3"/>
<path d="M258.632 16.5472H179.053V-63H258.632V16.5472Z" fill="#D3EEFF" fill-opacity="0.3"/>
<path d="M348.158 16.5472H268.579V-63H348.158V16.5472Z" fill="#D3EEFF" fill-opacity="0.3"/>
<path d="M437.684 16.5472H358.105V-63H437.684V16.5472Z" fill="#D3EEFF" fill-opacity="0.3"/>
<path d="M527.211 16.5472H447.632V-63H527.211V16.5472Z" fill="#D3EEFF" fill-opacity="0.3"/>
<path d="M616.737 16.5472H537.158V-63H616.737V16.5472Z" fill="#D3EEFF" fill-opacity="0.3"/>
<path d="M706.263 16.5472H626.684V-63H706.263V16.5472Z" fill="#D3EEFF" fill-opacity="0.3"/>
<path d="M795.789 16.5472H716.211V-63H795.789V16.5472Z" fill="#D3EEFF" fill-opacity="0.3"/>
<path d="M885.316 16.5472H805.737V-63H885.316V16.5472Z" fill="#D3EEFF" fill-opacity="0.3"/>
<path d="M974.842 16.5472H895.263V-63H974.842V16.5472Z" fill="#D3EEFF" fill-opacity="0.3"/>
<path d="M1064.37 16.5472H984.789V-63H1064.37V16.5472Z" fill="#D3EEFF" fill-opacity="0.3"/>
<path d="M1153.89 16.5472H1074.32V-63H1153.89V16.5472Z" fill="#D3EEFF" fill-opacity="0.3"/>
<path d="M1243.42 16.5472H1163.84V-63H1243.42V16.5472Z" fill="#D3EEFF" fill-opacity="0.3"/>
<path d="M1332.95 16.5472H1253.37V-63H1332.95V16.5472Z" fill="#D3EEFF" fill-opacity="0.3"/>
<path d="M1422.47 16.5472H1342.89V-63H1422.47V16.5472Z" fill="#D3EEFF" fill-opacity="0.3"/>
<path d="M1512 16.5472H1432.42V-63H1512V16.5472Z" fill="#D3EEFF" fill-opacity="0.3"/>
</svg>
