<svg width="32" height="32" viewBox="0 0 32 32" fill="none" xmlns="http://www.w3.org/2000/svg">
<path d="M25.332 21.3333V8.66667C25.332 7.2 24.132 6 22.6654 6H15.332" stroke="#F9B70E" stroke-width="2.25" stroke-linecap="round" stroke-linejoin="round"/>
<path d="M18.668 2.66669L14.668 6.00002L18.668 9.33335" stroke="#F9B70E" stroke-width="2.25" stroke-linecap="round" stroke-linejoin="round"/>
<path d="M25.332 29.3333C27.5412 29.3333 29.332 27.5425 29.332 25.3333C29.332 23.1242 27.5412 21.3333 25.332 21.3333C23.1229 21.3333 21.332 23.1242 21.332 25.3333C21.332 27.5425 23.1229 29.3333 25.332 29.3333Z" stroke="#F9B70E" stroke-width="2.25" stroke-linecap="round" stroke-linejoin="round"/>
<path d="M6.66797 10.6667V23.3334C6.66797 24.8 7.86797 26 9.33464 26H16.668" stroke="#F9B70E" stroke-width="2.25" stroke-linecap="round" stroke-linejoin="round"/>
<path d="M13.332 29.3334L17.332 26L13.332 22.6667" stroke="#F9B70E" stroke-width="2.25" stroke-linecap="round" stroke-linejoin="round"/>
<path d="M6.66797 10.6667C8.87711 10.6667 10.668 8.87583 10.668 6.66669C10.668 4.45755 8.87711 2.66669 6.66797 2.66669C4.45883 2.66669 2.66797 4.45755 2.66797 6.66669C2.66797 8.87583 4.45883 10.6667 6.66797 10.6667Z" stroke="#F9B70E" stroke-width="2.25" stroke-linecap="round" stroke-linejoin="round"/>
</svg>
