<svg width="32" height="32" viewBox="0 0 32 32" fill="none" xmlns="http://www.w3.org/2000/svg">
<path d="M9.33464 6.00008C7.1255 6.00008 5.33464 7.79094 5.33464 10.0001C5.33464 10.7583 5.54559 11.4672 5.91202 12.0714C4.06433 12.4248 2.66797 14.0494 2.66797 16.0001C2.66797 17.9508 4.06433 19.5753 5.91202 19.9287M9.33464 6.00008C9.33464 4.15913 10.827 2.66675 12.668 2.66675C14.5089 2.66675 16.0013 4.15913 16.0013 6.00008V26.0001C16.0013 27.841 14.5089 29.3334 12.668 29.3334C10.827 29.3334 9.33464 27.841 9.33464 26.0001C7.1255 26.0001 5.33464 24.2092 5.33464 22.0001C5.33464 21.2419 5.54559 20.5329 5.91202 19.9287M9.33464 6.00008C9.33464 7.09063 9.85834 8.05885 10.668 8.66699M5.91202 19.9287C6.38728 19.1451 7.12406 18.5377 8.0013 18.2277" stroke="#E53A3A" stroke-width="2" stroke-linecap="round" stroke-linejoin="round"/>
<path d="M22.6654 25.9999C24.8745 25.9999 26.6654 24.2091 26.6654 21.9999C26.6654 21.2417 26.4544 20.5328 26.088 19.9286C27.9357 19.5752 29.332 17.9506 29.332 15.9999C29.332 14.0492 27.9357 12.4247 26.088 12.0713M22.6654 25.9999C22.6654 27.8409 21.173 29.3333 19.332 29.3333C17.4911 29.3333 15.9987 27.8409 15.9987 25.9999L15.9987 5.99992C15.9987 4.15897 17.4911 2.66659 19.332 2.66659C21.173 2.66659 22.6654 4.15897 22.6654 5.99992C24.8745 5.99992 26.6654 7.79078 26.6654 9.99992C26.6654 10.7581 26.4544 11.4671 26.088 12.0713M22.6654 25.9999C22.6654 24.9094 22.1417 23.9411 21.332 23.333M26.088 12.0713C25.6127 12.8549 24.8759 13.4623 23.9987 13.7723" stroke="#E53A3A" stroke-width="2" stroke-linecap="round" stroke-linejoin="round"/>
</svg>
