<svg width="32" height="32" viewBox="0 0 32 32" fill="none" xmlns="http://www.w3.org/2000/svg">
<path d="M6.66797 10.6667C8.87711 10.6667 10.668 8.87589 10.668 6.66675C10.668 4.45761 8.87711 2.66675 6.66797 2.66675C4.45883 2.66675 2.66797 4.45761 2.66797 6.66675C2.66797 8.87589 4.45883 10.6667 6.66797 10.6667Z" stroke="#F9B70E" stroke-width="2" stroke-linecap="round" stroke-linejoin="round"/>
<path d="M25.332 20C27.5412 20 29.332 18.2091 29.332 16C29.332 13.7909 27.5412 12 25.332 12C23.1229 12 21.332 13.7909 21.332 16C21.332 18.2091 23.1229 20 25.332 20Z" stroke="#F9B70E" stroke-width="2" stroke-linecap="round" stroke-linejoin="round"/>
<path d="M6.66797 29.3333C8.87711 29.3333 10.668 27.5424 10.668 25.3333C10.668 23.1241 8.87711 21.3333 6.66797 21.3333C4.45883 21.3333 2.66797 23.1241 2.66797 25.3333C2.66797 27.5424 4.45883 29.3333 6.66797 29.3333Z" stroke="#F9B70E" stroke-width="2" stroke-linecap="round" stroke-linejoin="round"/>
<path d="M21.3346 16.0001H12.0013C9.06797 16.0001 6.66797 14.6667 6.66797 10.6667V21.3334" stroke="#F9B70E" stroke-width="2" stroke-linecap="round" stroke-linejoin="round"/>
</svg>
