<svg width="32" height="32" viewBox="0 0 32 32" fill="none" xmlns="http://www.w3.org/2000/svg">
<path d="M9.33444 13.3333H13.3344V9.33334L8.66777 4.66668C10.1606 3.95371 11.8378 3.72108 13.4683 4.00084C15.0988 4.28059 16.6025 5.05897 17.7723 6.22877C18.9421 7.39858 19.7205 8.90228 20.0003 10.5328C20.28 12.1633 20.0474 13.8405 19.3344 15.3333L27.3344 23.3333C27.8649 23.8638 28.1629 24.5832 28.1629 25.3333C28.1629 26.0835 27.8649 26.8029 27.3344 27.3333C26.804 27.8638 26.0846 28.1618 25.3344 28.1618C24.5843 28.1618 23.8649 27.8638 23.3344 27.3333L15.3344 19.3333C13.8416 20.0463 12.1644 20.2789 10.5339 19.9992C8.90338 19.7194 7.39968 18.9411 6.22987 17.7712C5.06006 16.6014 4.28169 15.0977 4.00194 13.4672C3.72218 11.8367 3.95481 10.1595 4.66777 8.66668L9.33444 13.3333Z" stroke="#07AF40" stroke-width="2" stroke-linecap="round" stroke-linejoin="round"/>
</svg>
