<svg width="70" height="70" viewBox="0 0 70 70" fill="none" xmlns="http://www.w3.org/2000/svg">
<path d="M48.8542 10.3833V5.83331C48.8542 4.63748 47.8625 3.64581 46.6667 3.64581C45.4708 3.64581 44.4792 4.63748 44.4792 5.83331V10.2083H25.5209V5.83331C25.5209 4.63748 24.5292 3.64581 23.3334 3.64581C22.1375 3.64581 21.1459 4.63748 21.1459 5.83331V10.3833C13.2709 11.1125 9.45002 15.8083 8.86668 22.7791C8.80835 23.625 9.50835 24.325 10.325 24.325H59.675C60.5208 24.325 61.2208 23.5958 61.1333 22.7791C60.55 15.8083 56.7292 11.1125 48.8542 10.3833Z" fill="#00FF84"/>
<path d="M58.3333 28.7H11.6667C10.0625 28.7 8.75 30.0125 8.75 31.6167V49.5833C8.75 58.3333 13.125 64.1667 23.3333 64.1667H46.6667C56.875 64.1667 61.25 58.3333 61.25 49.5833V31.6167C61.25 30.0125 59.9375 28.7 58.3333 28.7ZM26.8625 53.1125C26.7167 53.2292 26.5708 53.375 26.425 53.4625C26.25 53.5792 26.075 53.6667 25.9 53.725C25.725 53.8125 25.55 53.8708 25.375 53.9C25.1708 53.9292 24.9958 53.9583 24.7917 53.9583C24.4125 53.9583 24.0333 53.8708 23.6833 53.725C23.3042 53.5792 23.0125 53.375 22.7208 53.1125C22.1958 52.5583 21.875 51.8 21.875 51.0417C21.875 50.2833 22.1958 49.525 22.7208 48.9708C23.0125 48.7083 23.3042 48.5042 23.6833 48.3583C24.2083 48.125 24.7917 48.0667 25.375 48.1833C25.55 48.2125 25.725 48.2708 25.9 48.3583C26.075 48.4167 26.25 48.5042 26.425 48.6208C26.5708 48.7375 26.7167 48.8542 26.8625 48.9708C27.3875 49.525 27.7083 50.2833 27.7083 51.0417C27.7083 51.8 27.3875 52.5583 26.8625 53.1125ZM26.8625 42.9042C26.3083 43.4292 25.55 43.75 24.7917 43.75C24.0333 43.75 23.275 43.4292 22.7208 42.9042C22.1958 42.35 21.875 41.5917 21.875 40.8333C21.875 40.075 22.1958 39.3167 22.7208 38.7625C23.5375 37.9458 24.8208 37.6833 25.9 38.15C26.2792 38.2958 26.6 38.5 26.8625 38.7625C27.3875 39.3167 27.7083 40.075 27.7083 40.8333C27.7083 41.5917 27.3875 42.35 26.8625 42.9042ZM37.0708 53.1125C36.5167 53.6375 35.7583 53.9583 35 53.9583C34.2417 53.9583 33.4833 53.6375 32.9292 53.1125C32.4042 52.5583 32.0833 51.8 32.0833 51.0417C32.0833 50.2833 32.4042 49.525 32.9292 48.9708C34.0083 47.8917 35.9917 47.8917 37.0708 48.9708C37.5958 49.525 37.9167 50.2833 37.9167 51.0417C37.9167 51.8 37.5958 52.5583 37.0708 53.1125ZM37.0708 42.9042C36.925 43.0208 36.7792 43.1375 36.6333 43.2542C36.4583 43.3708 36.2833 43.4583 36.1083 43.5167C35.9333 43.6042 35.7583 43.6625 35.5833 43.6917C35.3792 43.7208 35.2042 43.75 35 43.75C34.2417 43.75 33.4833 43.4292 32.9292 42.9042C32.4042 42.35 32.0833 41.5917 32.0833 40.8333C32.0833 40.075 32.4042 39.3167 32.9292 38.7625C33.1917 38.5 33.5125 38.2958 33.8917 38.15C34.9708 37.6833 36.2542 37.9458 37.0708 38.7625C37.5958 39.3167 37.9167 40.075 37.9167 40.8333C37.9167 41.5917 37.5958 42.35 37.0708 42.9042ZM47.2792 53.1125C46.725 53.6375 45.9667 53.9583 45.2083 53.9583C44.45 53.9583 43.6917 53.6375 43.1375 53.1125C42.6125 52.5583 42.2917 51.8 42.2917 51.0417C42.2917 50.2833 42.6125 49.525 43.1375 48.9708C44.2167 47.8917 46.2 47.8917 47.2792 48.9708C47.8042 49.525 48.125 50.2833 48.125 51.0417C48.125 51.8 47.8042 52.5583 47.2792 53.1125ZM47.2792 42.9042C47.1333 43.0208 46.9875 43.1375 46.8417 43.2542C46.6667 43.3708 46.4917 43.4583 46.3167 43.5167C46.1417 43.6042 45.9667 43.6625 45.7917 43.6917C45.5875 43.7208 45.3833 43.75 45.2083 43.75C44.45 43.75 43.6917 43.4292 43.1375 42.9042C42.6125 42.35 42.2917 41.5917 42.2917 40.8333C42.2917 40.075 42.6125 39.3167 43.1375 38.7625C43.4292 38.5 43.7208 38.2958 44.1 38.15C44.625 37.9167 45.2083 37.8583 45.7917 37.975C45.9667 38.0042 46.1417 38.0625 46.3167 38.15C46.4917 38.2083 46.6667 38.2958 46.8417 38.4125C46.9875 38.5292 47.1333 38.6458 47.2792 38.7625C47.8042 39.3167 48.125 40.075 48.125 40.8333C48.125 41.5917 47.8042 42.35 47.2792 42.9042Z" fill="#00FF84"/>
</svg>
