<svg width="70" height="70" viewBox="0 0 70 70" fill="none" xmlns="http://www.w3.org/2000/svg">
<path d="M54.5135 33.6292C52.851 33.1917 50.8969 32.9583 48.5635 32.9583C45.326 32.9583 44.1302 33.7458 42.4677 35C42.3802 35.0583 42.2927 35.1458 42.2052 35.2333L39.4344 38.1792C37.1302 40.6583 32.901 40.6583 30.5677 38.1792L27.7969 35.2625C27.7094 35.1458 27.6219 35.0583 27.5344 35C25.8427 33.7458 24.6469 32.9583 21.4385 32.9583C19.1052 32.9583 17.151 33.1625 15.4885 33.6292C8.54687 35.4958 8.54688 41.0083 8.54688 45.85V48.5625C8.54688 55.8833 8.54687 64.1667 24.151 64.1667H45.851C56.2052 64.1667 61.4552 58.9167 61.4552 48.5625V45.85C61.4552 41.0083 61.4552 35.4958 54.5135 33.6292Z" fill="#00FF84"/>
<path d="M43.1393 5.83334H26.8643C13.9727 5.83334 13.9727 12.6875 13.9727 18.725V29.5167C14.0893 29.4583 14.2352 29.4292 14.3518 29.4C16.3935 28.8458 18.6977 28.5833 21.4393 28.5833C25.931 28.5833 28.0602 29.8958 30.1602 31.5C30.4518 31.7042 30.7435 31.9667 31.006 32.2583L33.7477 35.1458C34.0393 35.4667 34.506 35.6417 35.0018 35.6417C35.4977 35.6417 35.9643 35.4667 36.2268 35.175L39.0268 32.2292C39.2602 31.9958 39.5227 31.7333 39.8143 31.5292C41.9727 29.8958 44.0727 28.5833 48.5643 28.5833C51.306 28.5833 53.6102 28.8458 55.6518 29.4C55.7685 29.4292 55.9143 29.4583 56.031 29.5167V18.725C56.031 12.6875 56.031 5.83334 43.1393 5.83334ZM39.5227 24.7917H30.481C29.3727 24.7917 28.4393 23.8583 28.4393 22.75C28.4393 21.6125 29.3727 20.7083 30.481 20.7083H39.5227C40.631 20.7083 41.5643 21.6125 41.5643 22.75C41.5643 23.8583 40.631 24.7917 39.5227 24.7917ZM41.7977 16.6542H28.206C27.0977 16.6542 26.1935 15.7208 26.1935 14.6125C26.1935 13.475 27.0977 12.5708 28.206 12.5708H41.7977C42.906 12.5708 43.8102 13.475 43.8102 14.6125C43.8102 15.7208 42.906 16.6542 41.7977 16.6542Z" fill="#00FF84"/>
</svg>
