<svg width="70" height="70" viewBox="0 0 70 70" fill="none" xmlns="http://www.w3.org/2000/svg">
<path d="M49.582 5.83337C57.6361 5.83337 64.1649 12.3624 64.165 20.4164V49.5834C64.165 57.6375 57.6362 64.1664 49.582 64.1664H20.415C12.361 64.1662 5.83203 57.6374 5.83203 49.5834V20.4164C5.8322 12.3625 12.3611 5.83355 20.415 5.83337H49.582ZM40.1846 29.7845C39.4466 29.022 38.2399 29.0273 37.4844 29.7816C36.7218 30.5207 36.728 31.7297 37.4834 32.4857L37.8799 32.9008C41.8423 37.272 41.6915 44.0677 37.4824 48.3011C33.1401 52.6684 26.0454 52.6482 21.6787 48.3002C17.3146 43.9546 17.3135 36.856 21.6777 32.4867C22.44 31.7482 22.4354 30.5407 21.6816 29.7845C20.9432 29.021 19.735 29.0275 18.9795 29.7836C13.1203 35.6473 13.1205 45.161 18.957 51.0248C24.7948 56.8895 34.324 56.8657 40.1826 51.0258C46.0422 45.1846 46.0421 35.6483 40.1846 29.7845ZM51.041 18.973C45.2032 13.108 35.6731 13.132 29.8145 18.972C23.9549 24.8132 23.955 34.3495 29.8125 40.2133C30.5504 40.9761 31.7571 40.9705 32.5127 40.2162C33.2753 39.4772 33.2698 38.2691 32.5146 37.5131C28.1505 33.1675 28.1698 26.0666 32.5146 21.6967C36.8569 17.3294 43.9517 17.3497 48.3184 21.6976C52.6825 26.0432 52.6836 33.1418 48.3193 37.5111C47.5572 38.2496 47.5627 39.4571 48.3164 40.2133C49.0548 40.9764 50.2621 40.9708 51.0176 40.2152C56.877 34.3515 56.8776 24.8368 51.041 18.973Z" fill="#00FF84"/>
</svg>
