<svg width="70" height="70" viewBox="0 0 70 70" fill="none" xmlns="http://www.w3.org/2000/svg">
<path d="M47.2195 5.83325H22.7779C12.1612 5.83325 5.83203 12.1624 5.83203 22.7791V47.1916C5.83203 57.8374 12.1612 64.1666 22.7779 64.1666H47.1904C57.807 64.1666 64.1362 57.8374 64.1362 47.2208V22.7791C64.1654 12.1624 57.8362 5.83325 47.2195 5.83325ZM48.9404 28.2916L32.4029 44.8291C31.9945 45.2374 31.4404 45.4708 30.857 45.4708C30.2737 45.4708 29.7195 45.2374 29.3112 44.8291L21.057 36.5749C20.2112 35.7291 20.2112 34.3291 21.057 33.4832C21.9029 32.6374 23.3029 32.6374 24.1487 33.4832L30.857 40.1916L45.8487 25.1999C46.6945 24.3541 48.0945 24.3541 48.9404 25.1999C49.7862 26.0458 49.7862 27.4166 48.9404 28.2916Z" fill="#00FF84"/>
</svg>
