<svg width="32" height="32" viewBox="0 0 32 32" fill="none" xmlns="http://www.w3.org/2000/svg">
<path d="M22.666 13.3333H25.3327C27.9993 13.3333 29.3327 12 29.3327 9.33329V6.66663C29.3327 3.99996 27.9993 2.66663 25.3327 2.66663H22.666C19.9993 2.66663 18.666 3.99996 18.666 6.66663V9.33329C18.666 12 19.9993 13.3333 22.666 13.3333Z" stroke="#07AF40" stroke-width="2" stroke-miterlimit="10" stroke-linecap="round" stroke-linejoin="round"/>
<path d="M6.66602 29.3333H9.33268C11.9993 29.3333 13.3327 28 13.3327 25.3333V22.6666C13.3327 20 11.9993 18.6666 9.33268 18.6666H6.66602C3.99935 18.6666 2.66602 20 2.66602 22.6666V25.3333C2.66602 28 3.99935 29.3333 6.66602 29.3333Z" stroke="#07AF40" stroke-width="2" stroke-miterlimit="10" stroke-linecap="round" stroke-linejoin="round"/>
<path d="M7.99935 13.3333C10.9449 13.3333 13.3327 10.9455 13.3327 7.99996C13.3327 5.05444 10.9449 2.66663 7.99935 2.66663C5.05383 2.66663 2.66602 5.05444 2.66602 7.99996C2.66602 10.9455 5.05383 13.3333 7.99935 13.3333Z" stroke="#07AF40" stroke-width="2" stroke-miterlimit="10" stroke-linecap="round" stroke-linejoin="round"/>
<path d="M23.9993 29.3333C26.9449 29.3333 29.3327 26.9455 29.3327 24C29.3327 21.0544 26.9449 18.6666 23.9993 18.6666C21.0538 18.6666 18.666 21.0544 18.666 24C18.666 26.9455 21.0538 29.3333 23.9993 29.3333Z" stroke="#07AF40" stroke-width="2" stroke-miterlimit="10" stroke-linecap="round" stroke-linejoin="round"/>
</svg>
