<svg width="32" height="32" viewBox="0 0 32 32" fill="none" xmlns="http://www.w3.org/2000/svg">
<path d="M18.666 2.66663H13.3327C8.96038 2.66663 6.77422 2.66663 5.22456 3.75171C4.65122 4.15317 4.15255 4.65184 3.7511 5.22517C2.66602 6.77483 2.66602 8.96099 2.66602 13.3333C2.66602 17.7056 2.66602 19.8918 3.7511 21.4414C4.15255 22.0148 4.65122 22.5134 5.22456 22.9149C6.77422 24 8.96038 24 13.3327 24H18.666C23.0383 24 25.2245 24 26.7741 22.9149C27.3475 22.5134 27.8461 22.0148 28.2476 21.4414C29.3327 19.8918 29.3327 17.7056 29.3327 13.3333C29.3327 8.96099 29.3327 6.77483 28.2476 5.22517C27.8461 4.65184 27.3475 4.15317 26.7741 3.75171C25.2245 2.66663 23.0383 2.66663 18.666 2.66663Z" stroke="#07AF40" stroke-width="2" stroke-linecap="round"/>
<path d="M14.666 20H17.3327" stroke="#07AF40" stroke-width="2" stroke-linecap="round" stroke-linejoin="round"/>
<path d="M19.3327 29.3333L18.912 28.7749C17.9637 27.5159 17.7286 25.5925 18.3284 24M12.666 29.3333L13.0867 28.7749C14.035 27.5159 14.2701 25.5925 13.6703 24" stroke="#07AF40" stroke-width="2" stroke-linecap="round"/>
<path d="M9.33203 29.3333H22.6654" stroke="#07AF40" stroke-width="2" stroke-linecap="round"/>
</svg>
