<svg width="32" height="32" viewBox="0 0 32 32" fill="none" xmlns="http://www.w3.org/2000/svg">
<path d="M6.66602 12V21.3333" stroke="#07AF40" stroke-width="2" stroke-linecap="round" stroke-linejoin="round"/>
<path d="M6.99935 11.3333C9.39258 11.3333 11.3327 9.39319 11.3327 6.99996C11.3327 4.60673 9.39258 2.66663 6.99935 2.66663C4.60612 2.66663 2.66602 4.60673 2.66602 6.99996C2.66602 9.39319 4.60612 11.3333 6.99935 11.3333Z" stroke="#07AF40" stroke-width="2" stroke-linecap="round" stroke-linejoin="round"/>
<path d="M6.66602 29.3334C8.87515 29.3334 10.666 27.5425 10.666 25.3334C10.666 23.1242 8.87515 21.3334 6.66602 21.3334C4.45688 21.3334 2.66602 23.1242 2.66602 25.3334C2.66602 27.5425 4.45688 29.3334 6.66602 29.3334Z" stroke="#07AF40" stroke-width="2" stroke-linecap="round" stroke-linejoin="round"/>
<path d="M25.334 29.3334C27.5431 29.3334 29.334 27.5425 29.334 25.3334C29.334 23.1242 27.5431 21.3334 25.334 21.3334C23.1248 21.3334 21.334 23.1242 21.334 25.3334C21.334 27.5425 23.1248 29.3334 25.334 29.3334Z" stroke="#07AF40" stroke-width="2" stroke-linecap="round" stroke-linejoin="round"/>
<path d="M6.83984 12C7.43984 14.3333 9.57318 16.0667 12.0932 16.0533L16.6665 16.04C20.1598 16.0267 23.1332 18.2667 24.2265 21.3867" stroke="#07AF40" stroke-width="2" stroke-linecap="round" stroke-linejoin="round"/>
</svg>
