<svg width="32" height="32" viewBox="0 0 32 32" fill="none" xmlns="http://www.w3.org/2000/svg">
<path d="M12.0167 27.8462C10.1054 21.6219 7.99343 19.3762 2.46019 17.6923C7.99343 16.0085 10.1054 13.7628 12.0167 7.53847C13.9281 13.7628 16.0401 16.0085 21.5733 17.6923C16.0401 19.3762 13.9281 21.6219 12.0167 27.8462ZM24.7588 12.6154C23.8032 9.50155 22.7472 8.37955 19.9805 7.53847C22.7472 6.69739 23.8032 5.57539 24.7588 2.46155C25.7145 5.57539 26.7705 6.69739 29.5371 7.53847C26.7705 8.37955 25.7145 9.50155 24.7588 12.6154ZM22.3697 29.5385C21.8919 27.9815 21.3647 27.4214 19.9805 27C21.3647 26.5786 21.8919 26.0185 22.3697 24.4615C22.8475 26.0185 23.3747 26.5786 24.7588 27C23.3747 27.4214 22.8475 27.9815 22.3697 29.5385Z" stroke="#07AF40" stroke-width="2" stroke-linejoin="round"/>
</svg>
