<svg width="32" height="32" viewBox="0 0 32 32" fill="none" xmlns="http://www.w3.org/2000/svg">
<path d="M24 25.1466H22.9867C21.92 25.1466 20.9067 25.56 20.16 26.3066L17.88 28.56C16.84 29.5866 15.1467 29.5866 14.1067 28.56L11.8267 26.3066C11.08 25.56 10.0533 25.1466 9 25.1466H8C5.78667 25.1466 4 23.3733 4 21.1866V6.62663C4 4.43996 5.78667 2.66663 8 2.66663H24C26.2133 2.66663 28 4.43996 28 6.62663V21.1733C28 23.36 26.2133 25.1466 24 25.1466Z" stroke="#07AF40" stroke-width="2" stroke-miterlimit="10" stroke-linecap="round" stroke-linejoin="round"/>
<path d="M16.0934 11.9333C16.0401 11.9333 15.9601 11.9333 15.8934 11.9333C14.4934 11.8799 13.3867 10.7466 13.3867 9.33328C13.3867 7.89328 14.5467 6.73328 15.9867 6.73328C17.4267 6.73328 18.5868 7.90661 18.5868 9.33328C18.6001 10.7466 17.4934 11.8933 16.0934 11.9333Z" stroke="#07AF40" stroke-width="2" stroke-linecap="round" stroke-linejoin="round"/>
<path d="M12.3339 15.9467C10.5606 17.1333 10.5606 19.0667 12.3339 20.2533C14.3472 21.6 17.6539 21.6 19.6672 20.2533C21.4406 19.0667 21.4406 17.1333 19.6672 15.9467C17.6539 14.6133 14.3606 14.6133 12.3339 15.9467Z" stroke="#07AF40" stroke-width="2" stroke-linecap="round" stroke-linejoin="round"/>
</svg>
