<svg width="1512" height="456" viewBox="0 0 1512 456" fill="none" xmlns="http://www.w3.org/2000/svg">
<path d="M1432.42 492H1512V412.453H1432.42V492Z" fill="#D3EEFF" fill-opacity="0.35"/>
<path d="M1342.89 492H1422.47V412.453H1342.89V492Z" fill="#D3EEFF" fill-opacity="0.35"/>
<path d="M1253.37 492H1332.95V412.453H1253.37V492Z" fill="#D3EEFF" fill-opacity="0.35"/>
<path d="M1163.84 492H1243.42V412.453H1163.84V492Z" fill="#D3EEFF" fill-opacity="0.35"/>
<path d="M1074.32 492H1153.89V412.453H1074.32V492Z" fill="#D3EEFF" fill-opacity="0.35"/>
<path d="M984.789 492H1064.37V412.453H984.789V492Z" fill="#D3EEFF" fill-opacity="0.35"/>
<path d="M895.263 492H974.842V412.453H895.263V492Z" fill="#D3EEFF" fill-opacity="0.35"/>
<path d="M805.737 492H885.316V412.453H805.737V492Z" fill="#D3EEFF" fill-opacity="0.35"/>
<path d="M716.211 492H795.789V412.453H716.211V492Z" fill="#00A55E" fill-opacity="0.09"/>
<path d="M626.684 492H706.263V412.453H626.684V492Z" fill="#D3EEFF" fill-opacity="0.35"/>
<path d="M537.158 492H616.737V412.453H537.158V492Z" fill="#D3EEFF" fill-opacity="0.35"/>
<path d="M447.632 492H527.211V412.453H447.632V492Z" fill="#D3EEFF" fill-opacity="0.35"/>
<path d="M358.105 492H437.684V412.453H358.105V492Z" fill="#D3EEFF" fill-opacity="0.35"/>
<path d="M268.579 492H348.158V412.453H268.579V492Z" fill="#D3EEFF" fill-opacity="0.35"/>
<path d="M179.053 492H258.632V412.453H179.053V492Z" fill="#D3EEFF" fill-opacity="0.35"/>
<path d="M89.5262 492H169.105V412.453H89.5262V492Z" fill="#D3EEFF" fill-opacity="0.35"/>
<path d="M0 492H79.579V412.453H0V492Z" fill="#D3EEFF" fill-opacity="0.35"/>
<path d="M1432.42 402.509H1512V322.962H1432.42V402.509Z" fill="#D3EEFF" fill-opacity="0.35"/>
<path d="M1342.89 402.509H1422.47V322.962H1342.89V402.509Z" fill="#00A55E" fill-opacity="0.09"/>
<path d="M1253.37 402.509H1332.95V322.962H1253.37V402.509Z" fill="#D3EEFF" fill-opacity="0.35"/>
<path d="M1163.84 402.509H1243.42V322.962H1163.84V402.509Z" fill="#D3EEFF" fill-opacity="0.35"/>
<path d="M1074.32 402.509H1153.89V322.962H1074.32V402.509Z" fill="#D3EEFF" fill-opacity="0.35"/>
<path d="M984.789 402.509H1064.37V322.962H984.789V402.509Z" fill="#D3EEFF" fill-opacity="0.35"/>
<path d="M895.263 402.509H974.842V322.962H895.263V402.509Z" fill="#D3EEFF" fill-opacity="0.35"/>
<path d="M805.737 402.509H885.316V322.962H805.737V402.509Z" fill="#D3EEFF" fill-opacity="0.35"/>
<path d="M716.211 402.509H795.789V322.962H716.211V402.509Z" fill="#D3EEFF" fill-opacity="0.35"/>
<path d="M626.684 402.509H706.263V322.962H626.684V402.509Z" fill="#D3EEFF" fill-opacity="0.35"/>
<path d="M537.158 402.509H616.737V322.962H537.158V402.509Z" fill="#D3EEFF" fill-opacity="0.35"/>
<path d="M447.632 402.509H527.211V322.962H447.632V402.509Z" fill="#D3EEFF" fill-opacity="0.35"/>
<path d="M358.105 402.509H437.684V322.962H358.105V402.509Z" fill="#D3EEFF" fill-opacity="0.35"/>
<path d="M268.579 402.509H348.158V322.962H268.579V402.509Z" fill="#D3EEFF" fill-opacity="0.35"/>
<path d="M179.053 402.509H258.632V322.962H179.053V402.509Z" fill="#D3EEFF" fill-opacity="0.35"/>
<path d="M89.5262 402.509H169.105V322.962H89.5262V402.509Z" fill="#00A55E" fill-opacity="0.09"/>
<path d="M0 402.509H79.579V322.962H0V402.509Z" fill="#D3EEFF" fill-opacity="0.35"/>
<path d="M1432.42 313.019H1512V233.472H1432.42V313.019Z" fill="#00A55E" fill-opacity="0.09"/>
<path d="M1342.89 313.019H1422.47V233.472H1342.89V313.019Z" fill="#D3EEFF" fill-opacity="0.35"/>
<path d="M1253.37 313.019H1332.95V233.472H1253.37V313.019Z" fill="#D3EEFF" fill-opacity="0.35"/>
<path d="M1163.84 313.019H1243.42V233.472H1163.84V313.019Z" fill="#D3EEFF" fill-opacity="0.35"/>
<path d="M1074.32 313.019H1153.89V233.472H1074.32V313.019Z" fill="#00A55E" fill-opacity="0.09"/>
<path d="M984.789 313.019H1064.37V233.472H984.789V313.019Z" fill="#D3EEFF" fill-opacity="0.35"/>
<path d="M895.263 313.019H974.842V233.472H895.263V313.019Z" fill="#D3EEFF" fill-opacity="0.35"/>
<path d="M805.737 313.019H885.316V233.472H805.737V313.019Z" fill="#D3EEFF" fill-opacity="0.35"/>
<path d="M716.211 313.019H795.789V233.472H716.211V313.019Z" fill="#D3EEFF" fill-opacity="0.35"/>
<path d="M626.684 313.019H706.263V233.472H626.684V313.019Z" fill="#D3EEFF" fill-opacity="0.35"/>
<path d="M537.158 313.019H616.737V233.472H537.158V313.019Z" fill="#D3EEFF" fill-opacity="0.35"/>
<path d="M447.632 313.019H527.211V233.472H447.632V313.019Z" fill="#D3EEFF" fill-opacity="0.35"/>
<path d="M358.105 313.019H437.684V233.472H358.105V313.019Z" fill="#D3EEFF" fill-opacity="0.35"/>
<path d="M268.579 313.019H348.158V233.472H268.579V313.019Z" fill="#D3EEFF" fill-opacity="0.35"/>
<path d="M179.053 313.019H258.632V233.472H179.053V313.019Z" fill="#D3EEFF" fill-opacity="0.35"/>
<path d="M89.5262 313.019H169.105V233.472H89.5262V313.019Z" fill="#D3EEFF" fill-opacity="0.35"/>
<path d="M0 313.019H79.579V233.472H0V313.019Z" fill="#D3EEFF" fill-opacity="0.35"/>
<path d="M1432.42 223.528H1512V143.981H1432.42V223.528Z" fill="#D3EEFF" fill-opacity="0.35"/>
<path d="M1342.89 223.528H1422.47V143.981H1342.89V223.528Z" fill="#D3EEFF" fill-opacity="0.35"/>
<path d="M1253.37 223.528H1332.95V143.981H1253.37V223.528Z" fill="#D3EEFF" fill-opacity="0.35"/>
<path d="M1163.84 223.528H1243.42V143.981H1163.84V223.528Z" fill="#D3EEFF" fill-opacity="0.35"/>
<path d="M1074.32 223.528H1153.89V143.981H1074.32V223.528Z" fill="#D3EEFF" fill-opacity="0.35"/>
<path d="M984.789 223.528H1064.37V143.981H984.789V223.528Z" fill="#D3EEFF" fill-opacity="0.35"/>
<path d="M895.263 223.528H974.842V143.981H895.263V223.528Z" fill="#D3EEFF" fill-opacity="0.35"/>
<path d="M805.737 223.528H885.316V143.981H805.737V223.528Z" fill="#D3EEFF" fill-opacity="0.35"/>
<path d="M716.211 223.528H795.789V143.981H716.211V223.528Z" fill="#D3EEFF" fill-opacity="0.35"/>
<path d="M626.684 223.528H706.263V143.981H626.684V223.528Z" fill="#D3EEFF" fill-opacity="0.35"/>
<path d="M537.158 223.528H616.737V143.981H537.158V223.528Z" fill="#D3EEFF" fill-opacity="0.35"/>
<path d="M447.632 223.528H527.211V143.981H447.632V223.528Z" fill="#D3EEFF" fill-opacity="0.35"/>
<path d="M358.105 223.528H437.684V143.981H358.105V223.528Z" fill="#D3EEFF" fill-opacity="0.35"/>
<path d="M268.579 223.528H348.158V143.981H268.579V223.528Z" fill="#00A55E" fill-opacity="0.09"/>
<path d="M179.053 223.528H258.632V143.981H179.053V223.528Z" fill="#D3EEFF" fill-opacity="0.35"/>
<path d="M89.5262 223.528H169.105V143.981H89.5262V223.528Z" fill="#D3EEFF" fill-opacity="0.35"/>
<path d="M0 223.528H79.579V143.981H0V223.528Z" fill="#D3EEFF" fill-opacity="0.35"/>
<path d="M1432.42 134.038H1512V54.4906H1432.42V134.038Z" fill="#D3EEFF" fill-opacity="0.35"/>
<path d="M1342.89 134.038H1422.47V54.4906H1342.89V134.038Z" fill="#D3EEFF" fill-opacity="0.35"/>
<path d="M1253.37 134.038H1332.95V54.4906H1253.37V134.038Z" fill="#D3EEFF" fill-opacity="0.35"/>
<path d="M1163.84 134.038H1243.42V54.4906H1163.84V134.038Z" fill="#D3EEFF" fill-opacity="0.35"/>
<path d="M1074.32 134.038H1153.89V54.4906H1074.32V134.038Z" fill="#D3EEFF" fill-opacity="0.35"/>
<path d="M984.789 134.038H1064.37V54.4906H984.789V134.038Z" fill="#D3EEFF" fill-opacity="0.35"/>
<path d="M895.263 134.038H974.842V54.4906H895.263V134.038Z" fill="#D3EEFF" fill-opacity="0.35"/>
<path d="M805.737 134.038H885.316V54.4906H805.737V134.038Z" fill="#D3EEFF" fill-opacity="0.35"/>
<path d="M716.211 134.038H795.789V54.4906H716.211V134.038Z" fill="#D3EEFF" fill-opacity="0.35"/>
<path d="M626.684 134.038H706.263V54.4906H626.684V134.038Z" fill="#D3EEFF" fill-opacity="0.35"/>
<path d="M537.158 134.038H616.737V54.4906H537.158V134.038Z" fill="#D3EEFF" fill-opacity="0.35"/>
<path d="M447.632 134.038H527.211V54.4906H447.632V134.038Z" fill="#D3EEFF" fill-opacity="0.35"/>
<path d="M358.105 134.038H437.684V54.4906H358.105V134.038Z" fill="#D3EEFF" fill-opacity="0.35"/>
<path d="M268.579 134.038H348.158V54.4906H268.579V134.038Z" fill="#00A55E" fill-opacity="0.09"/>
<path d="M179.053 134.038H258.632V54.4906H179.053V134.038Z" fill="#D3EEFF" fill-opacity="0.35"/>
<path d="M89.5262 134.038H169.105V54.4906H89.5262V134.038Z" fill="#D3EEFF" fill-opacity="0.35"/>
<path d="M0 134.038H79.579V54.4906H0V134.038Z" fill="#00A55E" fill-opacity="0.09"/>
<path d="M1432.42 44.5472H1512V-35H1432.42V44.5472Z" fill="#00A55E" fill-opacity="0.09"/>
<path d="M1342.89 44.5472H1422.47V-35H1342.89V44.5472Z" fill="#D3EEFF" fill-opacity="0.35"/>
<path d="M1253.37 44.5472H1332.95V-35H1253.37V44.5472Z" fill="#D3EEFF" fill-opacity="0.35"/>
<path d="M1163.84 44.5472H1243.42V-35H1163.84V44.5472Z" fill="#D3EEFF" fill-opacity="0.35"/>
<path d="M1074.32 44.5472H1153.89V-35H1074.32V44.5472Z" fill="#D3EEFF" fill-opacity="0.35"/>
<path d="M984.789 44.5472H1064.37V-35H984.789V44.5472Z" fill="#00A55E" fill-opacity="0.09"/>
<path d="M895.263 44.5472H974.842V-35H895.263V44.5472Z" fill="#00A55E" fill-opacity="0.09"/>
<path d="M805.737 44.5472H885.316V-35H805.737V44.5472Z" fill="#D3EEFF" fill-opacity="0.35"/>
<path d="M716.211 44.5472H795.789V-35H716.211V44.5472Z" fill="#D3EEFF" fill-opacity="0.35"/>
<path d="M626.684 44.5472H706.263V-35H626.684V44.5472Z" fill="#D3EEFF" fill-opacity="0.35"/>
<path d="M537.158 44.5472H616.737V-35H537.158V44.5472Z" fill="#D3EEFF" fill-opacity="0.35"/>
<path d="M447.632 44.5472H527.211V-35H447.632V44.5472Z" fill="#D3EEFF" fill-opacity="0.35"/>
<path d="M358.105 44.5472H437.684V-35H358.105V44.5472Z" fill="#D3EEFF" fill-opacity="0.35"/>
<path d="M268.579 44.5472H348.158V-35H268.579V44.5472Z" fill="#D3EEFF" fill-opacity="0.35"/>
<path d="M179.053 44.5472H258.632V-35H179.053V44.5472Z" fill="#D3EEFF" fill-opacity="0.35"/>
<path d="M89.5262 44.5472H169.105V-35H89.5262V44.5472Z" fill="#D3EEFF" fill-opacity="0.35"/>
<path d="M0 44.5472H79.579V-35H0V44.5472Z" fill="#D3EEFF" fill-opacity="0.35"/>
</svg>
