<svg width="32" height="32" viewBox="0 0 32 32" fill="none" xmlns="http://www.w3.org/2000/svg">
<path d="M18.668 2.66675H13.3346C8.96233 2.66675 6.77618 2.66675 5.22651 3.75184C4.65318 4.15329 4.15451 4.65196 3.75306 5.22529C2.66797 6.77496 2.66797 8.96111 2.66797 13.3334C2.66797 17.7057 2.66797 19.8919 3.75306 21.4415C4.15451 22.0149 4.65318 22.5135 5.22651 22.915C6.77618 24.0001 8.96233 24.0001 13.3346 24.0001H18.668C23.0403 24.0001 25.2264 24.0001 26.7761 22.915C27.3494 22.5135 27.8481 22.0149 28.2495 21.4415C29.3346 19.8919 29.3346 17.7057 29.3346 13.3334C29.3346 8.96111 29.3346 6.77496 28.2495 5.22529C27.8481 4.65196 27.3494 4.15329 26.7761 3.75184C25.2264 2.66675 23.0403 2.66675 18.668 2.66675Z" stroke="#F9B70E" stroke-width="2" stroke-linecap="round"/>
<path d="M14.668 20H17.3346" stroke="#F9B70E" stroke-width="2" stroke-linecap="round" stroke-linejoin="round"/>
<path d="M19.3346 29.3333L18.914 28.7749C17.9657 27.5159 17.7306 25.5925 18.3303 24M12.668 29.3333L13.0886 28.7749C14.0369 27.5159 14.272 25.5925 13.6723 24" stroke="#F9B70E" stroke-width="2" stroke-linecap="round"/>
<path d="M9.33203 29.3333H22.6654" stroke="#F9B70E" stroke-width="2" stroke-linecap="round"/>
</svg>
