<svg width="32" height="32" viewBox="0 0 32 32" fill="none" xmlns="http://www.w3.org/2000/svg">
<path d="M10 11.1199H19.8667C21.0533 11.1199 22 12.0798 22 13.2532V15.6132" stroke="#E53A3A" stroke-width="2" stroke-miterlimit="10" stroke-linecap="round" stroke-linejoin="round"/>
<path d="M12.2533 8.87988L10 11.12L12.2533 13.3733" stroke="#E53A3A" stroke-width="2" stroke-miterlimit="10" stroke-linecap="round" stroke-linejoin="round"/>
<path d="M22 20.88H12.1333C10.9467 20.88 10 19.9201 10 18.7467V16.3867" stroke="#E53A3A" stroke-width="2" stroke-miterlimit="10" stroke-linecap="round" stroke-linejoin="round"/>
<path d="M19.7461 23.1201L21.9994 20.88L19.7461 18.6267" stroke="#E53A3A" stroke-width="2" stroke-miterlimit="10" stroke-linecap="round" stroke-linejoin="round"/>
<path d="M16.0013 29.3334C23.3651 29.3334 29.3346 23.3639 29.3346 16.0001C29.3346 8.63628 23.3651 2.66675 16.0013 2.66675C8.63751 2.66675 2.66797 8.63628 2.66797 16.0001C2.66797 23.3639 8.63751 29.3334 16.0013 29.3334Z" stroke="#E53A3A" stroke-width="2" stroke-miterlimit="10" stroke-linecap="round" stroke-linejoin="round"/>
</svg>
