<svg width="32" height="32" viewBox="0 0 32 32" fill="none" xmlns="http://www.w3.org/2000/svg">
<path d="M15.4266 28H14.0087C8.66172 28 5.98822 28 4.32712 25.9389C2.66602 23.8778 2.66602 20.5605 2.66602 13.9259V9.62523C2.66602 7.06871 2.66602 5.79046 3.0974 4.83131C3.4049 4.14759 3.85957 3.58344 4.41059 3.20189C5.1836 2.66663 6.21379 2.66663 8.27416 2.66663C9.59416 2.66663 10.2542 2.66663 10.8319 2.93545C12.151 3.54923 12.695 5.0361 13.2902 6.51325L14.0087 8.29626M9.33819 8.29626H20.7309C23.1205 8.29626 24.3153 8.29626 25.1735 9.00783C25.5451 9.31588 25.8641 9.71171 26.1124 10.1727C26.499 10.8907 26.625 11.7984 26.666 13.2222" stroke="#00B7FF" stroke-width="2" stroke-linecap="round"/>
<path d="M6.12747 16.7674C6.70257 15.2352 6.99012 14.4691 7.5513 13.988C8.45715 13.2114 9.75953 13.3416 10.8756 13.3416H23.0032C26.3056 13.3416 27.9568 13.3416 28.7808 14.4042C30.1952 16.2282 28.5265 19.1869 27.8544 20.9777C26.6494 24.188 26.0469 25.7932 24.8469 26.7722C23.0185 28.264 20.3587 27.9781 18.1519 27.9781H13.2497C8.52561 27.9781 6.16358 27.9781 4.93524 26.5155C2.66766 23.8156 5.10762 19.4845 6.12747 16.7674Z" stroke="#00B7FF" stroke-width="2" stroke-linecap="round"/>
</svg>
