<svg width="70" height="70" viewBox="0 0 70 70" fill="none" xmlns="http://www.w3.org/2000/svg">
<path d="M61.25 66.354H8.75C7.55417 66.354 6.5625 65.3623 6.5625 64.1665C6.5625 62.9707 7.55417 61.979 8.75 61.979H61.25C62.4458 61.979 63.4375 62.9707 63.4375 64.1665C63.4375 65.3623 62.4458 66.354 61.25 66.354Z" fill="#00FF84"/>
<path d="M16.3333 24.4419H11.6667C10.0625 24.4419 8.75 25.7544 8.75 27.3586V52.5002C8.75 54.1044 10.0625 55.4169 11.6667 55.4169H16.3333C17.9375 55.4169 19.25 54.1044 19.25 52.5002V27.3586C19.25 25.7252 17.9375 24.4419 16.3333 24.4419Z" fill="#00FF84"/>
<path d="M37.3333 15.1377H32.6667C31.0625 15.1377 29.75 16.4502 29.75 18.0544V52.5002C29.75 54.1044 31.0625 55.4169 32.6667 55.4169H37.3333C38.9375 55.4169 40.25 54.1044 40.25 52.5002V18.0544C40.25 16.4502 38.9375 15.1377 37.3333 15.1377Z" fill="#00FF84"/>
<path d="M58.3333 5.8335H53.6667C52.0625 5.8335 50.75 7.146 50.75 8.75016V52.5002C50.75 54.1043 52.0625 55.4168 53.6667 55.4168H58.3333C59.9375 55.4168 61.25 54.1043 61.25 52.5002V8.75016C61.25 7.146 59.9375 5.8335 58.3333 5.8335Z" fill="#00FF84"/>
</svg>
