<svg width="70" height="70" viewBox="0 0 70 70" fill="none" xmlns="http://www.w3.org/2000/svg">
<path d="M34.9987 5.83325C18.9279 5.83325 5.83203 18.9291 5.83203 34.9999C5.83203 51.0708 18.9279 64.1666 34.9987 64.1666C51.0695 64.1666 64.1654 51.0708 64.1654 34.9999C64.1654 18.9291 51.0695 5.83325 34.9987 5.83325ZM47.6862 45.4124C47.2779 46.1124 46.5487 46.4916 45.7904 46.4916C45.4112 46.4916 45.032 46.4041 44.682 46.1707L35.6404 40.7749C33.3945 39.4333 31.732 36.4874 31.732 33.8916V21.9333C31.732 20.7374 32.7237 19.7458 33.9195 19.7458C35.1154 19.7458 36.107 20.7374 36.107 21.9333V33.8916C36.107 34.9416 36.982 36.4874 37.8862 37.0124L46.9279 42.4082C47.9779 43.0207 48.3279 44.3624 47.6862 45.4124Z" fill="#00FF84"/>
</svg>
