<svg width="70" height="70" viewBox="0 0 70 70" fill="none" xmlns="http://www.w3.org/2000/svg">
<path d="M47.2195 5.83325H22.7779C12.1612 5.83325 5.83203 12.1624 5.83203 22.7791V47.1916C5.83203 57.8374 12.1612 64.1666 22.7779 64.1666H47.1904C57.807 64.1666 64.1362 57.8374 64.1362 47.2208V22.7791C64.1654 12.1624 57.8362 5.83325 47.2195 5.83325ZM34.9987 53.2291C29.7779 53.2291 25.6945 50.6332 22.9237 48.0666V50.1374C22.9237 51.3333 21.932 52.3249 20.7362 52.3249C19.5404 52.3249 18.5487 51.3333 18.5487 50.1374V42.1166C18.5487 40.9207 19.5404 39.9291 20.7362 39.9291H27.9695C29.1654 39.9291 30.157 40.9207 30.157 42.1166C30.157 43.3124 29.1654 44.3041 27.9695 44.3041H25.3445C27.5029 46.4624 30.857 48.8541 34.9987 48.8541C42.6404 48.8541 48.8529 42.6416 48.8529 34.9999C48.8529 33.8041 49.8445 32.8124 51.0404 32.8124C52.2362 32.8124 53.2279 33.8041 53.2279 34.9999C53.2279 45.0624 45.0612 53.2291 34.9987 53.2291ZM53.2279 27.8249C53.2279 27.9124 53.2279 27.9999 53.2279 28.0583C53.1987 28.3791 53.1112 28.6708 52.9654 28.9333C52.8195 29.1958 52.6154 29.4291 52.3529 29.6333C52.1487 29.7791 51.9154 29.8957 51.6529 29.9832C51.4487 30.0416 51.2445 30.0708 51.0404 30.0708H43.9529C42.757 30.0708 41.7654 29.0791 41.7654 27.8833C41.7654 26.6874 42.757 25.6958 43.9529 25.6958H46.3737C44.0404 23.5374 40.2779 21.1458 35.057 21.1458C27.4154 21.1458 21.2029 27.3583 21.2029 34.9999C21.2029 36.1958 20.2112 37.1874 19.0154 37.1874C17.8195 37.1874 16.7695 36.1958 16.7695 34.9999C16.7695 24.9374 24.9362 16.7708 34.9987 16.7708C41.2695 16.7708 45.8779 19.4833 48.8529 22.0791V19.8624C48.8529 18.6666 49.8445 17.6749 51.0404 17.6749C52.2362 17.6749 53.2279 18.6666 53.2279 19.8624V27.8249Z" fill="#00FF84"/>
</svg>
