<svg width="70" height="70" viewBox="0 0 70 70" fill="none" xmlns="http://www.w3.org/2000/svg">
<path d="M48.8542 10.3833V5.83331C48.8542 4.63748 47.8625 3.64581 46.6667 3.64581C45.4708 3.64581 44.4792 4.63748 44.4792 5.83331V10.2083H25.5209V5.83331C25.5209 4.63748 24.5292 3.64581 23.3334 3.64581C22.1375 3.64581 21.1459 4.63748 21.1459 5.83331V10.3833C13.2709 11.1125 9.45002 15.8083 8.86668 22.7791C8.80835 23.625 9.50835 24.325 10.325 24.325H59.675C60.5208 24.325 61.2208 23.5958 61.1333 22.7791C60.55 15.8083 56.7292 11.1125 48.8542 10.3833Z" fill="#00FF84"/>
<path d="M55.4167 43.75C48.9708 43.75 43.75 48.9708 43.75 55.4167C43.75 57.6042 44.3625 59.675 45.4417 61.425C47.4542 64.8083 51.1583 67.0833 55.4167 67.0833C59.675 67.0833 63.3792 64.8083 65.3917 61.425C66.4708 59.675 67.0833 57.6042 67.0833 55.4167C67.0833 48.9708 61.8625 43.75 55.4167 43.75ZM61.4542 54.1625L55.2417 59.9083C54.8333 60.2875 54.2792 60.4917 53.7542 60.4917C53.2 60.4917 52.6458 60.2875 52.2083 59.85L49.3208 56.9625C48.475 56.1167 48.475 54.7167 49.3208 53.8708C50.1667 53.025 51.5667 53.025 52.4125 53.8708L53.8125 55.2708L58.4792 50.9542C59.3542 50.1375 60.7542 50.1958 61.5708 51.0708C62.3875 51.9458 62.3292 53.3167 61.4542 54.1625Z" fill="#00FF84"/>
<path d="M58.3333 28.7H11.6667C10.0625 28.7 8.75 30.0125 8.75 31.6167V49.5833C8.75 58.3333 13.125 64.1667 23.3333 64.1667H37.7125C39.725 64.1667 41.125 62.2125 40.4833 60.3167C39.9 58.625 39.4042 56.7583 39.4042 55.4167C39.4042 46.5792 46.6083 39.375 55.4458 39.375C56.2917 39.375 57.1375 39.4333 57.9542 39.5792C59.7042 39.8417 61.2792 38.4708 61.2792 36.7208V31.6458C61.25 30.0125 59.9375 28.7 58.3333 28.7ZM26.8625 53.1125C26.3083 53.6375 25.55 53.9583 24.7917 53.9583C24.0333 53.9583 23.275 53.6375 22.7208 53.1125C22.1958 52.5583 21.875 51.8 21.875 51.0417C21.875 50.2833 22.1958 49.525 22.7208 48.9708C23.0125 48.7083 23.3042 48.5042 23.6833 48.3583C24.7625 47.8917 26.0458 48.1542 26.8625 48.9708C27.3875 49.525 27.7083 50.2833 27.7083 51.0417C27.7083 51.8 27.3875 52.5583 26.8625 53.1125ZM26.8625 42.9042C26.7167 43.0208 26.5708 43.1375 26.425 43.2542C26.25 43.3708 26.075 43.4583 25.9 43.5167C25.725 43.6042 25.55 43.6625 25.375 43.6917C25.1708 43.7208 24.9667 43.75 24.7917 43.75C24.0333 43.75 23.275 43.4292 22.7208 42.9042C22.1958 42.35 21.875 41.5917 21.875 40.8333C21.875 40.075 22.1958 39.3167 22.7208 38.7625C23.3917 38.0917 24.4125 37.7708 25.375 37.975C25.55 38.0042 25.725 38.0625 25.9 38.15C26.075 38.2083 26.25 38.2958 26.425 38.4125C26.5708 38.5292 26.7167 38.6458 26.8625 38.7625C27.3875 39.3167 27.7083 40.075 27.7083 40.8333C27.7083 41.5917 27.3875 42.35 26.8625 42.9042ZM37.0708 42.9042C36.5167 43.4292 35.7583 43.75 35 43.75C34.2417 43.75 33.4833 43.4292 32.9292 42.9042C32.4042 42.35 32.0833 41.5917 32.0833 40.8333C32.0833 40.075 32.4042 39.3167 32.9292 38.7625C34.0375 37.6833 35.9917 37.6833 37.0708 38.7625C37.5958 39.3167 37.9167 40.075 37.9167 40.8333C37.9167 41.5917 37.5958 42.35 37.0708 42.9042Z" fill="#00FF84"/>
</svg>
