<svg width="70" height="70" viewBox="0 0 70 70" fill="none" xmlns="http://www.w3.org/2000/svg">
<path d="M5.83465 61.25C5.00826 61.25 4.31603 60.97 3.75798 60.41C3.19992 59.85 2.91992 59.1578 2.91798 58.3333C2.91603 57.5089 3.19603 56.8167 3.75798 56.2567C4.31992 55.6967 5.01215 55.4167 5.83465 55.4167H64.168C64.9944 55.4167 65.6876 55.6967 66.2476 56.2567C66.8076 56.8167 67.0866 57.5089 67.0846 58.3333C67.0827 59.1578 66.8027 59.851 66.2446 60.4129C65.6866 60.9749 64.9944 61.2539 64.168 61.25H5.83465ZM11.668 52.5C10.0638 52.5 8.69103 51.9293 7.54965 50.7879C6.40826 49.6465 5.83659 48.2728 5.83465 46.6667V14.5833C5.83465 12.9792 6.40631 11.6064 7.54965 10.465C8.69298 9.32361 10.0658 8.75194 11.668 8.75H58.3346C59.9388 8.75 61.3126 9.32167 62.4559 10.465C63.5992 11.6083 64.1699 12.9811 64.168 14.5833V46.6667C64.168 48.2708 63.5973 49.6446 62.4559 50.7879C61.3145 51.9312 59.9408 52.5019 58.3346 52.5H11.668Z" fill="#00FF84"/>
</svg>
