<svg width="70" height="70" viewBox="0 0 70 70" fill="none" xmlns="http://www.w3.org/2000/svg">
<path d="M46.0831 6.44583C44.8872 5.25 42.8164 6.06667 42.8164 7.72917V17.9083C42.8164 22.1667 46.4331 25.6958 50.8372 25.6958C53.6081 25.725 57.4581 25.725 60.7539 25.725C62.4164 25.725 63.2914 23.7708 62.1247 22.6042C57.9247 18.375 50.3997 10.7625 46.0831 6.44583Z" fill="#00FF84"/>
<path d="M59.793 29.7208H51.3638C44.4513 29.7208 38.8221 24.0917 38.8221 17.1792V8.75001C38.8221 7.14584 37.5096 5.83334 35.9055 5.83334H23.5388C14.5555 5.83334 7.29297 11.6667 7.29297 22.0792V47.9208C7.29297 58.3333 14.5555 64.1667 23.5388 64.1667H46.4638C55.4471 64.1667 62.7096 58.3333 62.7096 47.9208V32.6375C62.7096 31.0333 61.3971 29.7208 59.793 29.7208ZM33.543 51.7708H21.8763C20.6805 51.7708 19.6888 50.7792 19.6888 49.5833C19.6888 48.3875 20.6805 47.3958 21.8763 47.3958H33.543C34.7388 47.3958 35.7305 48.3875 35.7305 49.5833C35.7305 50.7792 34.7388 51.7708 33.543 51.7708ZM39.3763 40.1042H21.8763C20.6805 40.1042 19.6888 39.1125 19.6888 37.9167C19.6888 36.7208 20.6805 35.7292 21.8763 35.7292H39.3763C40.5721 35.7292 41.5638 36.7208 41.5638 37.9167C41.5638 39.1125 40.5721 40.1042 39.3763 40.1042Z" fill="#00FF84"/>
</svg>
