<svg width="70" height="70" viewBox="0 0 70 70" fill="none" xmlns="http://www.w3.org/2000/svg">
<path d="M47.2195 5.83337H22.7779C12.1612 5.83337 5.83203 12.1625 5.83203 22.7792V47.1917C5.83203 57.8375 12.1612 64.1667 22.7779 64.1667H47.1904C57.807 64.1667 64.1362 57.8375 64.1362 47.2209V22.7792C64.1654 12.1625 57.8362 5.83337 47.2195 5.83337ZM23.857 48.9125C23.7987 48.9125 23.7112 48.9125 23.6529 48.9125C20.8237 48.65 18.1695 47.3375 16.1862 45.2375C11.5195 40.3375 11.5195 32.375 16.1862 27.475L22.5737 20.7667C24.8487 18.375 27.9112 17.0334 31.1779 17.0334C34.4445 17.0334 37.507 18.3459 39.782 20.7667C44.4487 25.6667 44.4487 33.6292 39.782 38.5292L36.6029 41.8834C35.757 42.7584 34.3862 42.7875 33.5112 41.9709C32.6362 41.125 32.607 39.7542 33.4237 38.8792L36.6029 35.525C39.6945 32.2875 39.6945 27.0084 36.6029 23.8C33.7154 20.7667 28.6404 20.7667 25.7237 23.8L19.3362 30.5084C16.2445 33.7459 16.2445 39.025 19.3362 42.2334C20.5904 43.575 22.282 44.3917 24.0612 44.5667C25.257 44.6834 26.132 45.7625 26.0154 46.9584C25.9279 48.0667 24.9654 48.9125 23.857 48.9125ZM53.8112 42.5542L47.4237 49.2625C45.1487 51.6542 42.0862 52.9959 38.8195 52.9959C35.5529 52.9959 32.4904 51.6834 30.2154 49.2625C25.5487 44.3625 25.5487 36.4 30.2154 31.5L33.3945 28.1459C34.2404 27.2709 35.6112 27.2417 36.4862 28.0584C37.3612 28.9042 37.3904 30.275 36.5737 31.15L33.3945 34.5042C30.3029 37.7417 30.3029 43.0209 33.3945 46.2292C36.282 49.2625 41.357 49.2917 44.2737 46.2292L50.6612 39.5209C53.7529 36.2834 53.7529 31.0042 50.6612 27.7959C49.407 26.4542 47.7154 25.6375 45.9362 25.4625C44.7404 25.3459 43.8654 24.2667 43.982 23.0709C44.0987 21.875 45.1487 20.9709 46.3737 21.1167C49.2029 21.4084 51.857 22.6917 53.8404 24.7917C58.4779 29.6625 58.4779 37.6542 53.8112 42.5542Z" fill="#00FF84"/>
</svg>
