<svg width="70" height="70" viewBox="0 0 70 70" fill="none" xmlns="http://www.w3.org/2000/svg">
<path d="M52.5 61.2501C52.5 58.0284 55.1117 55.4167 58.3333 55.4167C61.555 55.4167 64.1667 58.0284 64.1667 61.2501" stroke="#00FF84" stroke-width="5" stroke-linecap="round" stroke-linejoin="round"/>
<path d="M5.83203 61.2501C5.83203 58.0284 8.4437 55.4167 11.6654 55.4167C14.887 55.4167 17.4987 58.0284 17.4987 61.2501" stroke="#00FF84" stroke-width="5" stroke-linecap="round" stroke-linejoin="round"/>
<path d="M35.001 8.75C43.055 8.75 49.5838 15.279 49.584 23.333V37.917C49.584 43.3687 49.5843 46.0946 48.4121 48.125C47.6441 49.4552 46.5392 50.5602 45.209 51.3281C43.1786 52.5002 40.4525 52.5 35.001 52.5C29.5494 52.5 26.8234 52.5002 24.793 51.3281C23.4628 50.5602 22.3578 49.4552 21.5898 48.125C20.4176 46.0946 20.418 43.3687 20.418 37.917V23.333C20.4181 15.279 26.9469 8.75 35.001 8.75ZM29.168 19.375C27.7873 19.375 26.668 20.4943 26.668 21.875C26.668 23.2557 27.7873 24.375 29.168 24.375H29.1943C30.5748 24.3747 31.6943 23.2555 31.6943 21.875C31.6943 20.4945 30.5748 19.3753 29.1943 19.375H29.168ZM40.8105 19.375C39.43 19.3752 38.3105 20.4944 38.3105 21.875C38.3105 23.2556 39.43 24.3748 40.8105 24.375H40.8369C42.2176 24.375 43.3369 23.2557 43.3369 21.875C43.3369 20.4943 42.2176 19.375 40.8369 19.375H40.8105Z" fill="#00FF84"/>
<path d="M58.3346 55.4166V43.7499C58.3346 38.2502 58.3346 35.5003 56.6261 33.7918C54.9175 32.0833 52.1677 32.0833 46.668 32.0833H23.3346C17.8349 32.0833 15.0851 32.0833 13.3765 33.7918C11.668 35.5003 11.668 38.2502 11.668 43.7499V55.4166" stroke="#00FF84" stroke-width="5" stroke-linecap="round" stroke-linejoin="round"/>
</svg>
