<svg width="70" height="70" viewBox="0 0 70 70" fill="none" xmlns="http://www.w3.org/2000/svg">
<path d="M47.2195 5.83325H22.7779C12.1612 5.83325 5.83203 12.1624 5.83203 22.7791V47.2208C5.83203 57.8374 12.1612 64.1666 22.7779 64.1666H47.2195C57.8362 64.1666 64.1654 57.8374 64.1654 47.2208V22.7791C64.1654 12.1624 57.8362 5.83325 47.2195 5.83325ZM29.0779 43.4582L22.5154 50.0207C22.0779 50.4582 21.5237 50.6624 20.9695 50.6624C20.4154 50.6624 19.832 50.4582 19.4237 50.0207L17.2362 47.8332C16.3612 46.9874 16.3612 45.5874 17.2362 44.7416C18.082 43.8958 19.4529 43.8958 20.3279 44.7416L20.9695 45.3833L25.9862 40.3666C26.832 39.5208 28.2029 39.5208 29.0779 40.3666C29.9237 41.2124 29.9237 42.6124 29.0779 43.4582ZM29.0779 23.0416L22.5154 29.6041C22.0779 30.0416 21.5237 30.2458 20.9695 30.2458C20.4154 30.2458 19.832 30.0416 19.4237 29.6041L17.2362 27.4166C16.3612 26.5707 16.3612 25.1708 17.2362 24.3249C18.082 23.4791 19.4529 23.4791 20.3279 24.3249L20.9695 24.9666L25.9862 19.9499C26.832 19.1041 28.2029 19.1041 29.0779 19.9499C29.9237 20.7958 29.9237 22.1958 29.0779 23.0416ZM51.2154 48.4749H35.9029C34.707 48.4749 33.7154 47.4832 33.7154 46.2874C33.7154 45.0916 34.707 44.0999 35.9029 44.0999H51.2154C52.4404 44.0999 53.4029 45.0916 53.4029 46.2874C53.4029 47.4832 52.4404 48.4749 51.2154 48.4749ZM51.2154 28.0583H35.9029C34.707 28.0583 33.7154 27.0666 33.7154 25.8708C33.7154 24.6749 34.707 23.6833 35.9029 23.6833H51.2154C52.4404 23.6833 53.4029 24.6749 53.4029 25.8708C53.4029 27.0666 52.4404 28.0583 51.2154 28.0583Z" fill="#00FF84"/>
</svg>
