<svg width="70" height="70" viewBox="0 0 70 70" fill="none" xmlns="http://www.w3.org/2000/svg">
<path d="M62.8831 31.3249L58.9164 26.7166C58.1581 25.8416 57.5456 24.2082 57.5456 23.0416V18.0832C57.5456 14.9916 55.0081 12.4541 51.9164 12.4541H46.9581C45.8206 12.4541 44.1581 11.8416 43.2831 11.0832L38.6747 7.11655C36.6622 5.39572 33.3664 5.39572 31.3247 7.11655L26.7456 11.1124C25.8706 11.8416 24.2081 12.4541 23.0706 12.4541H18.0247C14.9331 12.4541 12.3956 14.9916 12.3956 18.0832V23.0707C12.3956 24.2082 11.7831 25.8416 11.0539 26.7166L7.11641 31.3541C5.42474 33.3666 5.42474 36.6332 7.11641 38.6457L11.0539 43.2832C11.7831 44.1582 12.3956 45.7916 12.3956 46.9291V51.9165C12.3956 55.0082 14.9331 57.5457 18.0247 57.5457H23.0706C24.2081 57.5457 25.8706 58.1582 26.7456 58.9166L31.3539 62.8832C33.3664 64.6041 36.6622 64.6041 38.7039 62.8832L43.3122 58.9166C44.1872 58.1582 45.8206 57.5457 46.9872 57.5457H51.9456C55.0372 57.5457 57.5747 55.0082 57.5747 51.9165V46.9582C57.5747 45.8207 58.1872 44.1582 58.9456 43.2832L62.9122 38.6749C64.6039 36.6624 64.6039 33.3374 62.8831 31.3249ZM47.1331 29.4874L33.0456 43.5749C32.6372 43.9832 32.0831 44.2166 31.4997 44.2166C30.9164 44.2166 30.3622 43.9832 29.9539 43.5749L22.8956 36.5166C22.0497 35.6707 22.0497 34.2707 22.8956 33.4249C23.7414 32.5791 25.1414 32.5791 25.9872 33.4249L31.4997 38.9374L44.0414 26.3957C44.8872 25.5499 46.2872 25.5499 47.1331 26.3957C47.9789 27.2416 47.9789 28.6416 47.1331 29.4874Z" fill="#00FF84"/>
</svg>
