<svg width="32" height="32" viewBox="0 0 32 32" fill="none" xmlns="http://www.w3.org/2000/svg">
<path d="M25.3346 21.3333V8.66667C25.3346 7.2 24.1346 6 22.668 6H16.668" stroke="#E53A3A" stroke-width="2.25" stroke-linecap="round" stroke-linejoin="round"/>
<path d="M20 2.66669L16 6.00002L20 9.33335" stroke="#E53A3A" stroke-width="2.25" stroke-linecap="round" stroke-linejoin="round"/>
<path d="M6.66797 12V21.3333" stroke="#E53A3A" stroke-width="2.25" stroke-linecap="round" stroke-linejoin="round"/>
<path d="M7.0013 11.3334C9.39454 11.3334 11.3346 9.39325 11.3346 7.00002C11.3346 4.60679 9.39454 2.66669 7.0013 2.66669C4.60807 2.66669 2.66797 4.60679 2.66797 7.00002C2.66797 9.39325 4.60807 11.3334 7.0013 11.3334Z" stroke="#E53A3A" stroke-width="2.25" stroke-linecap="round" stroke-linejoin="round"/>
<path d="M6.66797 29.3333C8.87711 29.3333 10.668 27.5425 10.668 25.3333C10.668 23.1242 8.87711 21.3333 6.66797 21.3333C4.45883 21.3333 2.66797 23.1242 2.66797 25.3333C2.66797 27.5425 4.45883 29.3333 6.66797 29.3333Z" stroke="#E53A3A" stroke-width="2.25" stroke-linecap="round" stroke-linejoin="round"/>
<path d="M25.332 29.3333C27.5412 29.3333 29.332 27.5425 29.332 25.3333C29.332 23.1242 27.5412 21.3333 25.332 21.3333C23.1229 21.3333 21.332 23.1242 21.332 25.3333C21.332 27.5425 23.1229 29.3333 25.332 29.3333Z" stroke="#E53A3A" stroke-width="2.25" stroke-linecap="round" stroke-linejoin="round"/>
</svg>
