<svg width="130" height="130" viewBox="0 0 130 130" fill="none" xmlns="http://www.w3.org/2000/svg">
<path d="M97.952 10.8721C83.5338 10.8721 68.9609 16.0067 68.9609 25.7703V31.8775C89.4479 32.8888 103.75 41.9912 103.75 54.2832V80.3455L103.943 80.5788C116.042 79.3341 126.75 74.355 126.75 65.9918V25.7703C126.943 16.0067 112.37 10.8721 97.952 10.8721Z" fill="#3BC2EB"/>
<path d="M61.2321 31.8777V25.7705C61.2321 15.968 46.6593 10.8334 32.241 10.8334C17.8228 10.8334 3.25 16.0069 3.25 25.7705V65.9531C3.25 74.3552 13.9574 79.2954 26.0563 80.579L26.4428 80.3067V54.2445C26.4428 41.9914 40.7451 32.889 61.2321 31.8777Z" fill="#3BC2EB"/>
<path d="M65.0926 37.2068C46.0358 37.2068 31.6562 44.5198 31.6562 54.2445V102.129C31.6562 111.854 46.0358 119.167 65.0926 119.167C84.1494 119.167 98.5289 111.854 98.5289 102.129V93.7268C88.8667 100.866 77.0674 104.463 65.0926 103.918C57.1908 104.053 49.3311 102.734 41.8997 100.028V93.299C49.2215 96.4573 57.1281 98.0089 65.0926 97.8501C81.3662 97.8501 94.6634 93.0656 98.4516 85.2858V74.6275C91.3778 80.579 79.4721 84.4689 65.0926 84.4689C57.1908 84.6032 49.3311 83.285 41.8997 80.579V73.6939C49.2215 76.8523 57.1281 78.4038 65.0926 78.2451C81.3662 78.2451 94.6634 73.9273 98.4516 66.1475V54.2445C98.5289 44.5198 84.1494 37.2068 65.0926 37.2068Z" fill="#3BC2EB"/>
</svg>
